<svg width="260" height="88" viewBox="0 0 260 88" fill="none" xmlns="http://www.w3.org/2000/svg">
<mask id="mask0_59_246" style="mask-type:alpha" maskUnits="userSpaceOnUse" x="0" y="0" width="88" height="88">
    <rect width="88" height="88" rx="16" fill="#D9D9D9"/>
</mask>
    <g mask="url(#mask0_59_246)">
        <rect width="88" height="88" rx="16" fill="white"/>
        <rect x="-5.9549" y="-4.6316" width="27.1278" height="95.2782" fill="#F25700" fill-opacity="0.2"/>
        <path d="M82.0451 73.4436H48.8694V70.1082C50.4145 69.9942 52.2313 69.7233 54.32 69.2957C56.4087 68.8396 57.453 68.2837 57.453 67.628C57.453 67.4 57.4244 67.1434 57.3672 66.8583C57.3386 66.5732 57.2241 66.1884 57.0239 65.7038L51.8308 53.1319H30.8009C30.3145 54.3007 29.7709 55.6691 29.17 57.237C28.5978 58.8049 28.097 60.2018 27.6679 61.4276C27.1242 63.024 26.7952 64.1786 26.6807 64.8913C26.5949 65.604 26.552 66.1029 26.552 66.3879C26.552 67.3002 27.2387 68.0841 28.6121 68.7398C30.0141 69.367 32.3316 69.8231 35.5648 70.1082V73.4436H10.5865V70.1082C11.5307 70.0512 12.5893 69.9086 13.7624 69.6806C14.9641 69.424 15.9083 69.0819 16.595 68.6543C17.7681 67.9701 18.7552 67.1291 19.5563 66.1314C20.3861 65.1336 21.0728 63.9505 21.6164 62.5822C24.9354 54.5715 28.2544 46.5466 31.5734 38.5074C34.921 30.4683 38.612 21.6024 42.6463 11.9098H51.2299C56.8379 25.6505 61.2298 36.5119 64.4058 44.494C67.5817 52.4762 70.2855 59.09 72.5173 64.3354C72.8892 65.1906 73.3613 65.9746 73.9336 66.6873C74.5058 67.3715 75.3213 68.0271 76.3799 68.6543C77.1811 69.1104 78.1109 69.4525 79.1696 69.6806C80.2282 69.9086 81.1867 70.0512 82.0451 70.1082V73.4436ZM50.0711 48.8985L41.23 26.9191L32.5176 48.8985H50.0711Z"
              fill="#F25700"/>
        <line x1="21.5113" y1="-5.61655" x2="21.5113" y2="94.9398" stroke="#F25700" stroke-width="2"
              stroke-linecap="round" stroke-dasharray="7 7"/>
    </g>
<path d="M109.084 25V23.551C109.476 23.551 109.791 23.439 110.029 23.215C110.267 22.991 110.463 22.697 110.617 22.333C110.785 21.969 110.946 21.577 111.1 21.157L115.195 9.922H116.665L121.138 21.367C121.222 21.577 121.334 21.899 121.474 22.333C121.614 22.753 121.698 23.124 121.726 23.446C121.964 23.418 122.188 23.404 122.398 23.404C122.622 23.39 122.804 23.383 122.944 23.383V25H117.295V23.614C117.687 23.614 117.953 23.537 118.093 23.383C118.247 23.215 118.317 22.991 118.303 22.711C118.289 22.431 118.212 22.116 118.072 21.766L117.652 20.611L113.095 20.695L112.759 21.682C112.689 21.864 112.584 22.137 112.444 22.501C112.318 22.851 112.199 23.145 112.087 23.383C112.311 23.355 112.577 23.341 112.885 23.341C113.207 23.327 113.438 23.32 113.578 23.32V25H109.084ZM113.62 19.12H117.127L116.161 16.495C115.979 15.991 115.818 15.487 115.678 14.983C115.538 14.465 115.433 14.01 115.363 13.618H115.342C115.286 13.856 115.202 14.213 115.09 14.689C114.978 15.165 114.803 15.732 114.565 16.39L113.62 19.12ZM126.634 25.063L124.093 17.776C123.967 17.412 123.869 17.139 123.799 16.957C123.743 16.775 123.701 16.621 123.673 16.495C123.645 16.369 123.61 16.222 123.568 16.054L122.749 16.096V14.5H127.789V15.844C127.355 15.858 127.103 16.026 127.033 16.348C126.963 16.67 126.984 17.048 127.096 17.482L127.81 20.044C127.894 20.352 127.971 20.681 128.041 21.031C128.125 21.367 128.195 21.703 128.251 22.039C128.321 21.745 128.391 21.423 128.461 21.073C128.545 20.723 128.664 20.289 128.818 19.771L130.351 14.5H132.64L134.32 20.296C134.404 20.59 134.488 20.912 134.572 21.262C134.67 21.598 134.754 21.906 134.824 22.186C134.88 21.906 134.957 21.598 135.055 21.262C135.153 20.926 135.244 20.625 135.328 20.359L136.147 17.692C136.259 17.314 136.357 17.006 136.441 16.768C136.525 16.516 136.63 16.264 136.756 16.012L135.559 16.096V14.5H139.549V15.844C139.269 15.844 139.024 15.935 138.814 16.117C138.604 16.299 138.415 16.523 138.247 16.789C138.093 17.041 137.967 17.293 137.869 17.545C137.771 17.783 137.701 17.972 137.659 18.112L135.265 25.063H133.039L131.59 20.59C131.548 20.436 131.478 20.212 131.38 19.918C131.296 19.624 131.205 19.309 131.107 18.973C131.023 18.623 130.939 18.301 130.855 18.007C130.785 18.399 130.68 18.847 130.54 19.351C130.4 19.855 130.267 20.317 130.141 20.737C130.015 21.157 129.924 21.444 129.868 21.598L128.713 25.063H126.634ZM145.446 25.336C144.424 25.336 143.521 25.112 142.737 24.664C141.953 24.202 141.344 23.558 140.91 22.732C140.476 21.892 140.259 20.905 140.259 19.771C140.259 18.791 140.476 17.874 140.91 17.02C141.344 16.166 141.953 15.48 142.737 14.962C143.535 14.43 144.459 14.164 145.509 14.164C146.097 14.164 146.671 14.248 147.231 14.416C147.791 14.57 148.295 14.843 148.743 15.235C149.205 15.627 149.569 16.159 149.835 16.831C150.115 17.503 150.248 18.343 150.234 19.351L143.346 19.477C143.346 20.233 143.437 20.912 143.619 21.514C143.815 22.116 144.13 22.592 144.564 22.942C144.998 23.292 145.579 23.467 146.307 23.467C146.587 23.467 146.902 23.418 147.252 23.32C147.616 23.222 147.98 23.061 148.344 22.837C148.722 22.599 149.072 22.284 149.394 21.892L150.339 22.774C149.835 23.488 149.296 24.034 148.722 24.412C148.148 24.776 147.574 25.021 147 25.147C146.44 25.273 145.922 25.336 145.446 25.336ZM143.472 18.007H147.336C147.322 17.419 147.238 16.957 147.084 16.621C146.944 16.271 146.748 16.019 146.496 15.865C146.244 15.711 145.95 15.634 145.614 15.634C144.998 15.634 144.515 15.858 144.165 16.306C143.815 16.74 143.584 17.307 143.472 18.007ZM156.808 25.336C156.206 25.336 155.618 25.259 155.044 25.105C154.47 24.951 154.022 24.755 153.7 24.517L153.742 25.147H152.146L152.062 21.535H153.427C153.469 21.955 153.637 22.34 153.931 22.69C154.225 23.04 154.61 23.32 155.086 23.53C155.562 23.726 156.094 23.824 156.682 23.824C156.92 23.824 157.144 23.789 157.354 23.719C157.578 23.649 157.76 23.537 157.9 23.383C158.054 23.215 158.131 23.012 158.131 22.774C158.131 22.508 158.033 22.291 157.837 22.123C157.655 21.955 157.382 21.794 157.018 21.64C156.668 21.486 156.227 21.311 155.695 21.115C155.261 20.947 154.82 20.772 154.372 20.59C153.938 20.408 153.532 20.191 153.154 19.939C152.79 19.673 152.496 19.351 152.272 18.973C152.048 18.581 151.936 18.105 151.936 17.545C151.936 17.139 152.013 16.74 152.167 16.348C152.321 15.942 152.559 15.578 152.881 15.256C153.203 14.92 153.609 14.654 154.099 14.458C154.603 14.262 155.198 14.164 155.884 14.164C156.262 14.164 156.689 14.227 157.165 14.353C157.655 14.465 158.068 14.64 158.404 14.878V14.269H160V17.986H158.635C158.551 17.496 158.376 17.076 158.11 16.726C157.858 16.376 157.529 16.11 157.123 15.928C156.717 15.732 156.262 15.634 155.758 15.634C155.408 15.634 155.086 15.718 154.792 15.886C154.512 16.054 154.372 16.341 154.372 16.747C154.372 17.069 154.484 17.328 154.708 17.524C154.932 17.706 155.24 17.86 155.632 17.986C156.024 18.112 156.458 18.259 156.934 18.427C157.648 18.665 158.278 18.945 158.824 19.267C159.384 19.589 159.825 19.981 160.147 20.443C160.469 20.891 160.63 21.444 160.63 22.102C160.63 22.83 160.448 23.432 160.084 23.908C159.72 24.384 159.244 24.741 158.656 24.979C158.082 25.217 157.466 25.336 156.808 25.336ZM167.526 25.336C166.518 25.336 165.608 25.119 164.796 24.685C163.984 24.251 163.34 23.635 162.864 22.837C162.402 22.025 162.171 21.073 162.171 19.981C162.171 18.819 162.409 17.804 162.885 16.936C163.375 16.054 164.019 15.375 164.817 14.899C165.629 14.409 166.511 14.164 167.463 14.164C168.471 14.164 169.374 14.381 170.172 14.815C170.97 15.249 171.6 15.872 172.062 16.684C172.524 17.482 172.755 18.441 172.755 19.561C172.755 20.737 172.531 21.759 172.083 22.627C171.635 23.495 171.019 24.167 170.235 24.643C169.451 25.105 168.548 25.336 167.526 25.336ZM167.61 23.845C168.17 23.831 168.59 23.635 168.87 23.257C169.164 22.879 169.367 22.403 169.479 21.829C169.591 21.255 169.647 20.674 169.647 20.086C169.647 19.568 169.605 19.043 169.521 18.511C169.451 17.979 169.332 17.496 169.164 17.062C168.996 16.628 168.765 16.278 168.471 16.012C168.191 15.746 167.841 15.62 167.421 15.634C166.875 15.648 166.441 15.844 166.119 16.222C165.811 16.6 165.587 17.076 165.447 17.65C165.321 18.21 165.258 18.798 165.258 19.414C165.258 20.128 165.335 20.828 165.489 21.514C165.643 22.2 165.888 22.767 166.224 23.215C166.574 23.649 167.036 23.859 167.61 23.845ZM174.485 25V23.635C174.877 23.635 175.157 23.558 175.325 23.404C175.493 23.25 175.598 23.033 175.64 22.753C175.696 22.459 175.724 22.13 175.724 21.766V18.238C175.724 17.986 175.731 17.706 175.745 17.398C175.759 17.076 175.78 16.761 175.808 16.453C175.584 16.467 175.318 16.481 175.01 16.495C174.716 16.495 174.492 16.502 174.338 16.516V14.92C174.982 14.92 175.528 14.885 175.976 14.815C176.424 14.745 176.774 14.661 177.026 14.563C177.292 14.465 177.474 14.374 177.572 14.29H178.601C178.629 14.43 178.643 14.605 178.643 14.815C178.657 15.025 178.671 15.2 178.685 15.34C179.161 14.976 179.672 14.689 180.218 14.479C180.778 14.269 181.303 14.164 181.793 14.164C182.437 14.164 182.969 14.283 183.389 14.521C183.809 14.745 184.145 15.088 184.397 15.55C184.901 15.13 185.454 14.794 186.056 14.542C186.672 14.29 187.26 14.164 187.82 14.164C188.954 14.164 189.808 14.493 190.382 15.151C190.97 15.795 191.264 16.922 191.264 18.532V21.619C191.264 21.815 191.257 22.095 191.243 22.459C191.229 22.809 191.208 23.145 191.18 23.467C191.404 23.439 191.649 23.425 191.915 23.425C192.195 23.411 192.405 23.404 192.545 23.404V25H187.232V23.635C187.554 23.635 187.785 23.558 187.925 23.404C188.079 23.25 188.177 23.033 188.219 22.753C188.261 22.459 188.282 22.13 188.282 21.766V18.553C188.268 17.643 188.114 17.013 187.82 16.663C187.54 16.313 187.162 16.131 186.686 16.117C186.322 16.103 185.979 16.166 185.657 16.306C185.349 16.446 185.069 16.614 184.817 16.81C184.887 17.09 184.936 17.398 184.964 17.734C184.992 18.07 185.006 18.427 185.006 18.805C185.006 19.281 185.006 19.75 185.006 20.212C185.006 20.674 185.006 21.143 185.006 21.619C185.006 21.815 184.999 22.095 184.985 22.459C184.971 22.809 184.95 23.145 184.922 23.467C185.146 23.439 185.391 23.425 185.657 23.425C185.923 23.411 186.133 23.404 186.287 23.404V25H180.869V23.635C181.233 23.635 181.492 23.558 181.646 23.404C181.814 23.25 181.919 23.033 181.961 22.753C182.003 22.459 182.024 22.13 182.024 21.766L182.003 18.49C182.003 17.58 181.87 16.957 181.604 16.621C181.338 16.285 180.967 16.11 180.491 16.096C180.141 16.096 179.812 16.173 179.504 16.327C179.21 16.481 178.944 16.663 178.706 16.873C178.706 17.055 178.706 17.23 178.706 17.398C178.706 17.566 178.706 17.741 178.706 17.923V21.619C178.706 21.815 178.699 22.095 178.685 22.459C178.671 22.809 178.65 23.145 178.622 23.467C178.846 23.439 179.077 23.425 179.315 23.425C179.553 23.411 179.742 23.404 179.882 23.404V25H174.485ZM198.991 25.336C197.969 25.336 197.066 25.112 196.282 24.664C195.498 24.202 194.889 23.558 194.455 22.732C194.021 21.892 193.804 20.905 193.804 19.771C193.804 18.791 194.021 17.874 194.455 17.02C194.889 16.166 195.498 15.48 196.282 14.962C197.08 14.43 198.004 14.164 199.054 14.164C199.642 14.164 200.216 14.248 200.776 14.416C201.336 14.57 201.84 14.843 202.288 15.235C202.75 15.627 203.114 16.159 203.38 16.831C203.66 17.503 203.793 18.343 203.779 19.351L196.891 19.477C196.891 20.233 196.982 20.912 197.164 21.514C197.36 22.116 197.675 22.592 198.109 22.942C198.543 23.292 199.124 23.467 199.852 23.467C200.132 23.467 200.447 23.418 200.797 23.32C201.161 23.222 201.525 23.061 201.889 22.837C202.267 22.599 202.617 22.284 202.939 21.892L203.884 22.774C203.38 23.488 202.841 24.034 202.267 24.412C201.693 24.776 201.119 25.021 200.545 25.147C199.985 25.273 199.467 25.336 198.991 25.336ZM197.017 18.007H200.881C200.867 17.419 200.783 16.957 200.629 16.621C200.489 16.271 200.293 16.019 200.041 15.865C199.789 15.711 199.495 15.634 199.159 15.634C198.543 15.634 198.06 15.858 197.71 16.306C197.36 16.74 197.129 17.307 197.017 18.007ZM120.907 41.046C120.907 40.29 120.802 39.667 120.592 39.177C120.382 38.673 120.081 38.302 119.689 38.064C119.311 37.812 118.856 37.693 118.324 37.707H117.316V47.556C117.316 47.934 117.309 48.298 117.295 48.648C117.281 48.998 117.26 49.264 117.232 49.446C117.47 49.418 117.771 49.404 118.135 49.404C118.513 49.39 118.772 49.383 118.912 49.383V51H112.78V49.614C113.102 49.6 113.368 49.558 113.578 49.488C113.802 49.418 113.97 49.257 114.082 49.005C114.208 48.753 114.271 48.347 114.271 47.787V37.728H113.305C112.507 37.742 111.877 38.015 111.415 38.547C110.953 39.079 110.722 39.912 110.722 41.046H109.336L109.441 36.3H122.167L122.293 41.046H120.907ZM125.976 56.691C125.444 56.691 124.989 56.53 124.611 56.208C124.247 55.9 124.065 55.487 124.065 54.969C124.065 54.591 124.184 54.255 124.422 53.961C124.674 53.681 124.996 53.534 125.388 53.52C125.696 53.506 125.955 53.604 126.165 53.814C126.389 54.038 126.501 54.339 126.501 54.717C126.501 54.759 126.501 54.801 126.501 54.843C126.501 54.885 126.494 54.934 126.48 54.99C126.508 54.99 126.543 54.983 126.585 54.969C126.711 54.927 126.844 54.808 126.984 54.612C127.138 54.43 127.285 54.185 127.425 53.877C127.579 53.555 127.726 53.191 127.866 52.785C128.02 52.393 128.153 51.98 128.265 51.546L124.947 44.889C124.555 44.105 124.296 43.517 124.17 43.125C124.058 42.719 123.981 42.362 123.939 42.054L122.973 42.096V40.5H128.202V41.844C127.684 41.9 127.397 42.096 127.341 42.432C127.299 42.768 127.362 43.118 127.53 43.482L129.588 48.186C129.728 47.822 129.91 47.262 130.134 46.506C130.358 45.736 130.624 44.903 130.932 44.007C130.988 43.825 131.058 43.615 131.142 43.377C131.24 43.125 131.345 42.88 131.457 42.642C131.569 42.39 131.688 42.187 131.814 42.033L130.617 42.096V40.5H134.355V41.844C133.921 41.942 133.557 42.208 133.263 42.642C132.983 43.076 132.731 43.608 132.507 44.238L129.882 51.735C129.49 52.869 129.119 53.8 128.769 54.528C128.419 55.27 128.027 55.816 127.593 56.166C127.159 56.516 126.62 56.691 125.976 56.691ZM135.296 56.355V54.99C135.688 54.99 135.968 54.913 136.136 54.759C136.318 54.605 136.43 54.381 136.472 54.087C136.528 53.807 136.556 53.485 136.556 53.121V44.238C136.556 43.986 136.563 43.706 136.577 43.398C136.591 43.076 136.612 42.761 136.64 42.453C136.416 42.467 136.15 42.481 135.842 42.495C135.534 42.495 135.303 42.502 135.149 42.516V40.92C135.807 40.92 136.353 40.885 136.787 40.815C137.235 40.745 137.585 40.661 137.837 40.563C138.103 40.465 138.285 40.374 138.383 40.29H139.412C139.44 40.43 139.461 40.605 139.475 40.815C139.489 41.011 139.503 41.172 139.517 41.298C140.007 40.878 140.49 40.584 140.966 40.416C141.456 40.248 141.918 40.164 142.352 40.164C143.192 40.164 143.927 40.381 144.557 40.815C145.201 41.249 145.698 41.865 146.048 42.663C146.412 43.461 146.594 44.399 146.594 45.477C146.594 46.597 146.377 47.605 145.943 48.501C145.509 49.383 144.9 50.076 144.116 50.58C143.346 51.084 142.436 51.336 141.386 51.336C141.008 51.336 140.665 51.294 140.357 51.21C140.063 51.14 139.783 51.056 139.517 50.958V52.974C139.517 53.17 139.51 53.443 139.496 53.793C139.496 54.157 139.482 54.5 139.454 54.822C139.678 54.794 139.923 54.773 140.189 54.759C140.455 54.759 140.658 54.759 140.798 54.759V56.355H135.296ZM141.05 49.761C141.694 49.747 142.191 49.558 142.541 49.194C142.905 48.816 143.157 48.326 143.297 47.724C143.437 47.122 143.507 46.478 143.507 45.792C143.507 45.148 143.43 44.539 143.276 43.965C143.122 43.391 142.877 42.929 142.541 42.579C142.205 42.215 141.764 42.04 141.218 42.054C140.868 42.068 140.546 42.159 140.252 42.327C139.958 42.481 139.713 42.698 139.517 42.978C139.517 43.412 139.517 43.846 139.517 44.28C139.517 44.7 139.517 45.12 139.517 45.54C139.517 45.96 139.517 46.387 139.517 46.821C139.517 47.241 139.517 47.668 139.517 48.102C139.517 48.522 139.517 48.949 139.517 49.383C139.671 49.481 139.888 49.572 140.168 49.656C140.448 49.74 140.742 49.775 141.05 49.761ZM153.473 51.336C152.465 51.336 151.555 51.119 150.743 50.685C149.931 50.251 149.287 49.635 148.811 48.837C148.349 48.025 148.118 47.073 148.118 45.981C148.118 44.819 148.356 43.804 148.832 42.936C149.322 42.054 149.966 41.375 150.764 40.899C151.576 40.409 152.458 40.164 153.41 40.164C154.418 40.164 155.321 40.381 156.119 40.815C156.917 41.249 157.547 41.872 158.009 42.684C158.471 43.482 158.702 44.441 158.702 45.561C158.702 46.737 158.478 47.759 158.03 48.627C157.582 49.495 156.966 50.167 156.182 50.643C155.398 51.105 154.495 51.336 153.473 51.336ZM153.557 49.845C154.117 49.831 154.537 49.635 154.817 49.257C155.111 48.879 155.314 48.403 155.426 47.829C155.538 47.255 155.594 46.674 155.594 46.086C155.594 45.568 155.552 45.043 155.468 44.511C155.398 43.979 155.279 43.496 155.111 43.062C154.943 42.628 154.712 42.278 154.418 42.012C154.138 41.746 153.788 41.62 153.368 41.634C152.822 41.648 152.388 41.844 152.066 42.222C151.758 42.6 151.534 43.076 151.394 43.65C151.268 44.21 151.205 44.798 151.205 45.414C151.205 46.128 151.282 46.828 151.436 47.514C151.59 48.2 151.835 48.767 152.171 49.215C152.521 49.649 152.983 49.859 153.557 49.845ZM164.947 56.691C163.743 56.691 162.791 56.558 162.091 56.292C161.391 56.04 160.894 55.704 160.6 55.284C160.306 54.864 160.159 54.416 160.159 53.94C160.159 53.646 160.222 53.352 160.348 53.058C160.474 52.764 160.677 52.477 160.957 52.197C161.251 51.931 161.65 51.707 162.154 51.525C161.58 51.371 161.174 51.126 160.936 50.79C160.712 50.44 160.6 50.069 160.6 49.677C160.6 49.313 160.747 48.907 161.041 48.459C161.335 47.997 161.867 47.647 162.637 47.409C162.049 47.171 161.566 46.8 161.188 46.296C160.81 45.792 160.607 45.183 160.579 44.469C160.551 43.629 160.761 42.887 161.209 42.243C161.657 41.585 162.245 41.074 162.973 40.71C163.701 40.346 164.464 40.164 165.262 40.164C165.626 40.164 166.046 40.213 166.522 40.311C166.998 40.409 167.411 40.577 167.761 40.815C167.915 40.381 168.111 39.975 168.349 39.597C168.601 39.205 168.902 38.89 169.252 38.652C169.602 38.4 169.994 38.274 170.428 38.274C170.904 38.274 171.261 38.4 171.499 38.652C171.751 38.89 171.877 39.212 171.877 39.618C171.877 39.786 171.835 39.975 171.751 40.185C171.681 40.381 171.548 40.549 171.352 40.689C171.17 40.829 170.911 40.899 170.575 40.899C170.365 40.899 170.155 40.822 169.945 40.668C169.735 40.5 169.609 40.304 169.567 40.08C169.385 40.136 169.203 40.318 169.021 40.626C168.839 40.934 168.734 41.207 168.706 41.445C169.112 41.795 169.42 42.201 169.63 42.663C169.84 43.125 169.945 43.622 169.945 44.154C169.945 44.966 169.714 45.687 169.252 46.317C168.804 46.933 168.216 47.423 167.488 47.787C166.774 48.137 166.004 48.312 165.178 48.312C164.996 48.312 164.793 48.305 164.569 48.291C164.345 48.263 164.128 48.249 163.918 48.249C163.61 48.249 163.351 48.305 163.141 48.417C162.931 48.529 162.826 48.683 162.826 48.879C162.826 49.145 163.029 49.327 163.435 49.425C163.841 49.523 164.534 49.6 165.514 49.656C166.592 49.712 167.53 49.852 168.328 50.076C169.14 50.286 169.77 50.622 170.218 51.084C170.666 51.546 170.89 52.183 170.89 52.995C170.89 53.597 170.715 54.122 170.365 54.57C170.015 55.032 169.546 55.417 168.958 55.725C168.384 56.047 167.747 56.285 167.047 56.439C166.347 56.607 165.647 56.691 164.947 56.691ZM165.556 55.242C166.55 55.242 167.299 55.06 167.803 54.696C168.321 54.332 168.58 53.954 168.58 53.562C168.58 53.268 168.468 53.023 168.244 52.827C168.02 52.645 167.684 52.498 167.236 52.386C166.802 52.274 166.242 52.204 165.556 52.176C165.248 52.148 164.891 52.127 164.485 52.113C164.079 52.099 163.722 52.064 163.414 52.008C163.204 52.176 163.043 52.386 162.931 52.638C162.819 52.89 162.756 53.135 162.742 53.373C162.714 53.933 162.952 54.381 163.456 54.717C163.974 55.067 164.674 55.242 165.556 55.242ZM165.262 46.905C165.64 46.905 165.955 46.786 166.207 46.548C166.473 46.31 166.669 46.009 166.795 45.645C166.935 45.281 167.005 44.91 167.005 44.532C167.005 44.042 166.942 43.573 166.816 43.125C166.69 42.663 166.494 42.292 166.228 42.012C165.976 41.718 165.647 41.571 165.241 41.571C164.681 41.571 164.247 41.823 163.939 42.327C163.631 42.831 163.477 43.405 163.477 44.049C163.477 44.539 163.547 45.008 163.687 45.456C163.827 45.89 164.03 46.24 164.296 46.506C164.562 46.772 164.884 46.905 165.262 46.905ZM172.332 49.635C172.724 49.635 173.004 49.558 173.172 49.404C173.34 49.25 173.445 49.033 173.487 48.753C173.543 48.459 173.571 48.13 173.571 47.766V44.238C173.571 43.986 173.578 43.706 173.592 43.398C173.606 43.076 173.627 42.761 173.655 42.453C173.431 42.467 173.165 42.481 172.857 42.495C172.563 42.495 172.339 42.502 172.185 42.516V40.92H173.025C173.571 40.92 174.068 40.85 174.516 40.71C174.978 40.57 175.279 40.43 175.419 40.29H176.448C176.476 40.43 176.497 40.696 176.511 41.088C176.525 41.466 176.532 41.802 176.532 42.096C176.91 41.634 177.267 41.263 177.603 40.983C177.939 40.703 178.268 40.5 178.59 40.374C178.926 40.234 179.262 40.164 179.598 40.164C180.088 40.164 180.515 40.304 180.879 40.584C181.243 40.85 181.425 41.291 181.425 41.907C181.425 42.117 181.376 42.341 181.278 42.579C181.18 42.803 181.026 42.992 180.816 43.146C180.606 43.3 180.319 43.377 179.955 43.377C179.675 43.377 179.388 43.293 179.094 43.125C178.8 42.957 178.632 42.635 178.59 42.159C178.31 42.159 178.03 42.278 177.75 42.516C177.47 42.74 177.218 43.013 176.994 43.335C176.784 43.643 176.637 43.93 176.553 44.196V47.619C176.553 47.815 176.546 48.095 176.532 48.459C176.518 48.809 176.497 49.145 176.469 49.467C176.693 49.439 176.938 49.425 177.204 49.425C177.484 49.411 177.694 49.404 177.834 49.404V51H172.332V49.635ZM188.367 51C188.339 50.804 188.318 50.643 188.304 50.517C188.304 50.377 188.297 50.216 188.283 50.034C187.807 50.51 187.303 50.846 186.771 51.042C186.239 51.238 185.7 51.336 185.154 51.336C184.258 51.336 183.558 51.07 183.054 50.538C182.55 50.006 182.298 49.341 182.298 48.543C182.298 47.871 182.466 47.297 182.802 46.821C183.152 46.345 183.607 45.96 184.167 45.666C184.741 45.358 185.371 45.127 186.057 44.973C186.757 44.805 187.457 44.707 188.157 44.679V43.587C188.157 43.223 188.108 42.894 188.01 42.6C187.926 42.306 187.772 42.075 187.548 41.907C187.338 41.739 187.037 41.662 186.645 41.676C186.379 41.69 186.12 41.746 185.868 41.844C185.616 41.942 185.399 42.082 185.217 42.264C185.329 42.39 185.399 42.53 185.427 42.684C185.455 42.824 185.469 42.95 185.469 43.062C185.469 43.342 185.357 43.636 185.133 43.944C184.909 44.238 184.552 44.378 184.062 44.364C183.642 44.35 183.32 44.203 183.096 43.923C182.872 43.643 182.76 43.314 182.76 42.936C182.76 42.376 182.956 41.893 183.348 41.487C183.754 41.067 184.293 40.745 184.965 40.521C185.637 40.283 186.379 40.164 187.191 40.164C188.423 40.164 189.375 40.486 190.047 41.13C190.733 41.76 191.076 42.775 191.076 44.175C191.076 44.651 191.076 45.057 191.076 45.393C191.076 45.729 191.069 46.065 191.055 46.401C191.055 46.737 191.055 47.143 191.055 47.619C191.055 47.815 191.048 48.095 191.034 48.459C191.02 48.809 190.999 49.145 190.971 49.467C191.209 49.439 191.461 49.425 191.727 49.425C191.993 49.411 192.196 49.404 192.336 49.404V51H188.367ZM188.136 46.17C187.744 46.212 187.373 46.282 187.023 46.38C186.673 46.478 186.365 46.611 186.099 46.779C185.847 46.947 185.644 47.15 185.49 47.388C185.35 47.626 185.28 47.892 185.28 48.186C185.294 48.578 185.42 48.858 185.658 49.026C185.896 49.194 186.169 49.278 186.477 49.278C186.799 49.278 187.1 49.208 187.38 49.068C187.66 48.928 187.912 48.746 188.136 48.522C188.136 48.382 188.136 48.249 188.136 48.123C188.136 47.983 188.136 47.843 188.136 47.703C188.136 47.451 188.136 47.199 188.136 46.947C188.136 46.681 188.136 46.422 188.136 46.17ZM193.542 56.355V54.99C193.934 54.99 194.214 54.913 194.382 54.759C194.564 54.605 194.676 54.381 194.718 54.087C194.774 53.807 194.802 53.485 194.802 53.121V44.238C194.802 43.986 194.809 43.706 194.823 43.398C194.837 43.076 194.858 42.761 194.886 42.453C194.662 42.467 194.396 42.481 194.088 42.495C193.78 42.495 193.549 42.502 193.395 42.516V40.92C194.053 40.92 194.599 40.885 195.033 40.815C195.481 40.745 195.831 40.661 196.083 40.563C196.349 40.465 196.531 40.374 196.629 40.29H197.658C197.686 40.43 197.707 40.605 197.721 40.815C197.735 41.011 197.749 41.172 197.763 41.298C198.253 40.878 198.736 40.584 199.212 40.416C199.702 40.248 200.164 40.164 200.598 40.164C201.438 40.164 202.173 40.381 202.803 40.815C203.447 41.249 203.944 41.865 204.294 42.663C204.658 43.461 204.84 44.399 204.84 45.477C204.84 46.597 204.623 47.605 204.189 48.501C203.755 49.383 203.146 50.076 202.362 50.58C201.592 51.084 200.682 51.336 199.632 51.336C199.254 51.336 198.911 51.294 198.603 51.21C198.309 51.14 198.029 51.056 197.763 50.958V52.974C197.763 53.17 197.756 53.443 197.742 53.793C197.742 54.157 197.728 54.5 197.7 54.822C197.924 54.794 198.169 54.773 198.435 54.759C198.701 54.759 198.904 54.759 199.044 54.759V56.355H193.542ZM199.296 49.761C199.94 49.747 200.437 49.558 200.787 49.194C201.151 48.816 201.403 48.326 201.543 47.724C201.683 47.122 201.753 46.478 201.753 45.792C201.753 45.148 201.676 44.539 201.522 43.965C201.368 43.391 201.123 42.929 200.787 42.579C200.451 42.215 200.01 42.04 199.464 42.054C199.114 42.068 198.792 42.159 198.498 42.327C198.204 42.481 197.959 42.698 197.763 42.978C197.763 43.412 197.763 43.846 197.763 44.28C197.763 44.7 197.763 45.12 197.763 45.54C197.763 45.96 197.763 46.387 197.763 46.821C197.763 47.241 197.763 47.668 197.763 48.102C197.763 48.522 197.763 48.949 197.763 49.383C197.917 49.481 198.134 49.572 198.414 49.656C198.694 49.74 198.988 49.775 199.296 49.761ZM212.75 49.635C213.142 49.635 213.422 49.558 213.59 49.404C213.772 49.25 213.884 49.033 213.926 48.753C213.982 48.459 214.01 48.13 214.01 47.766L213.989 44.784C213.989 43.874 213.849 43.202 213.569 42.768C213.303 42.32 212.876 42.096 212.288 42.096C211.938 42.096 211.588 42.173 211.238 42.327C210.902 42.481 210.615 42.663 210.377 42.873V47.619C210.377 47.815 210.37 48.095 210.356 48.459C210.342 48.809 210.321 49.145 210.293 49.467C210.531 49.439 210.783 49.425 211.049 49.425C211.315 49.411 211.518 49.404 211.658 49.404V51H206.156V49.635C206.548 49.635 206.828 49.558 206.996 49.404C207.178 49.25 207.29 49.033 207.332 48.753C207.374 48.459 207.395 48.13 207.395 47.766V39.135C207.395 38.883 207.402 38.596 207.416 38.274C207.43 37.938 207.451 37.616 207.479 37.308C207.255 37.322 206.989 37.336 206.681 37.35C206.387 37.35 206.163 37.357 206.009 37.371V35.775C206.667 35.775 207.213 35.74 207.647 35.67C208.095 35.6 208.445 35.516 208.697 35.418C208.963 35.32 209.145 35.229 209.243 35.145H210.377V41.34C210.657 41.116 210.979 40.92 211.343 40.752C211.707 40.57 212.078 40.43 212.456 40.332C212.834 40.22 213.163 40.164 213.443 40.164C214.731 40.164 215.641 40.535 216.173 41.277C216.705 42.005 216.978 43.181 216.992 44.805V47.619C216.992 47.815 216.985 48.095 216.971 48.459C216.957 48.809 216.936 49.145 216.908 49.467C217.132 49.439 217.377 49.425 217.643 49.425C217.909 49.411 218.119 49.404 218.273 49.404V51H212.75V49.635ZM221.664 56.691C221.132 56.691 220.677 56.53 220.299 56.208C219.935 55.9 219.753 55.487 219.753 54.969C219.753 54.591 219.872 54.255 220.11 53.961C220.362 53.681 220.684 53.534 221.076 53.52C221.384 53.506 221.643 53.604 221.853 53.814C222.077 54.038 222.189 54.339 222.189 54.717C222.189 54.759 222.189 54.801 222.189 54.843C222.189 54.885 222.182 54.934 222.168 54.99C222.196 54.99 222.231 54.983 222.273 54.969C222.399 54.927 222.532 54.808 222.672 54.612C222.826 54.43 222.973 54.185 223.113 53.877C223.267 53.555 223.414 53.191 223.554 52.785C223.708 52.393 223.841 51.98 223.953 51.546L220.635 44.889C220.243 44.105 219.984 43.517 219.858 43.125C219.746 42.719 219.669 42.362 219.627 42.054L218.661 42.096V40.5H223.89V41.844C223.372 41.9 223.085 42.096 223.029 42.432C222.987 42.768 223.05 43.118 223.218 43.482L225.276 48.186C225.416 47.822 225.598 47.262 225.822 46.506C226.046 45.736 226.312 44.903 226.62 44.007C226.676 43.825 226.746 43.615 226.83 43.377C226.928 43.125 227.033 42.88 227.145 42.642C227.257 42.39 227.376 42.187 227.502 42.033L226.305 42.096V40.5H230.043V41.844C229.609 41.942 229.245 42.208 228.951 42.642C228.671 43.076 228.419 43.608 228.195 44.238L225.57 51.735C225.178 52.869 224.807 53.8 224.457 54.528C224.107 55.27 223.715 55.816 223.281 56.166C222.847 56.516 222.308 56.691 221.664 56.691Z" fill="white"/>
<path d="M120.843 69.687C120.832 69.0183 120.764 68.463 120.639 68.021C120.514 67.579 120.293 67.2503 119.976 67.035C119.67 66.8083 119.222 66.7007 118.633 66.712H117.188L117.171 75.977C117.171 76.283 117.165 76.5493 117.154 76.776C117.154 76.9913 117.143 77.1727 117.12 77.32C117.358 77.3087 117.59 77.2973 117.817 77.286C118.055 77.2747 118.293 77.2633 118.531 77.252V78H114.536V77.439C114.967 77.4163 115.256 77.3143 115.403 77.133C115.562 76.9517 115.647 76.708 115.658 76.402C115.681 76.0847 115.692 75.7333 115.692 75.348L115.709 66.729L113.958 66.746C113.244 66.746 112.74 66.984 112.445 67.46C112.15 67.936 112.003 68.6783 112.003 69.687H111.374L111.476 66.1H121.387L121.489 69.687H120.843ZM128.589 77.49C128.94 77.49 129.184 77.405 129.32 77.235C129.456 77.0537 129.535 76.81 129.558 76.504C129.581 76.1867 129.592 75.824 129.592 75.416V73.036C129.592 72.0613 129.433 71.3303 129.116 70.843C128.81 70.3557 128.323 70.1177 127.654 70.129C127.235 70.1403 126.821 70.2423 126.413 70.435C126.016 70.6277 125.693 70.877 125.444 71.183V76.198C125.444 76.4247 125.438 76.6287 125.427 76.81C125.416 76.98 125.393 77.1613 125.359 77.354C125.54 77.3427 125.716 77.337 125.886 77.337C126.067 77.3257 126.249 77.3143 126.43 77.303V78H122.962V77.49C123.313 77.49 123.557 77.405 123.693 77.235C123.829 77.0537 123.908 76.81 123.931 76.504C123.965 76.1867 123.982 75.824 123.982 75.416V67.375C123.982 67.1937 123.982 67.0237 123.982 66.865C123.993 66.695 124.01 66.4967 124.033 66.27C123.829 66.2813 123.625 66.2927 123.421 66.304C123.228 66.3153 123.03 66.3267 122.826 66.338V65.624C123.325 65.624 123.71 65.6013 123.982 65.556C124.265 65.5107 124.475 65.454 124.611 65.386C124.758 65.318 124.872 65.2443 124.951 65.165H125.444V70.35C125.693 70.1347 125.971 69.9477 126.277 69.789C126.594 69.619 126.917 69.483 127.246 69.381C127.586 69.279 127.915 69.228 128.232 69.228C129.218 69.228 129.926 69.5397 130.357 70.163C130.799 70.775 131.026 71.7327 131.037 73.036L131.054 76.198C131.054 76.4247 131.048 76.6287 131.037 76.81C131.037 76.98 131.02 77.1613 130.986 77.354C131.167 77.3427 131.343 77.337 131.513 77.337C131.694 77.3257 131.876 77.3143 132.057 77.303V78H128.589V77.49ZM137.933 78.272C137.151 78.272 136.442 78.0907 135.808 77.728C135.184 77.354 134.691 76.8327 134.329 76.164C133.966 75.484 133.785 74.685 133.785 73.767C133.785 72.9737 133.96 72.2313 134.312 71.54C134.674 70.8487 135.179 70.2933 135.825 69.874C136.471 69.4433 137.219 69.228 138.069 69.228C138.545 69.228 138.987 69.3073 139.395 69.466C139.814 69.6133 140.182 69.8457 140.5 70.163C140.817 70.469 141.066 70.86 141.248 71.336C141.429 71.8007 141.52 72.3503 141.52 72.985L135.536 73.087C135.536 73.9483 135.626 74.7077 135.808 75.365C136 76.011 136.306 76.5153 136.726 76.878C137.145 77.2293 137.683 77.405 138.341 77.405C138.692 77.405 139.049 77.3427 139.412 77.218C139.786 77.0933 140.131 76.9233 140.449 76.708C140.766 76.4927 141.021 76.2547 141.214 75.994L141.622 76.334C141.316 76.81 140.947 77.1897 140.517 77.473C140.086 77.7563 139.644 77.9603 139.191 78.085C138.737 78.2097 138.318 78.272 137.933 78.272ZM135.587 72.373H139.922C139.922 71.965 139.859 71.574 139.735 71.2C139.621 70.8147 139.429 70.503 139.157 70.265C138.885 70.0157 138.528 69.891 138.086 69.891C137.428 69.891 136.879 70.0893 136.437 70.486C136.006 70.8713 135.723 71.5003 135.587 72.373ZM158.106 69.891C157.993 68.8257 157.619 67.9983 156.984 67.409C156.361 66.8197 155.556 66.525 154.57 66.525C153.97 66.525 153.403 66.6553 152.87 66.916C152.349 67.1653 151.89 67.528 151.493 68.004C151.097 68.48 150.785 69.0523 150.558 69.721C150.332 70.3897 150.218 71.1433 150.218 71.982C150.218 73.0473 150.422 73.988 150.83 74.804C151.238 75.62 151.788 76.2547 152.479 76.708C153.171 77.1613 153.936 77.388 154.774 77.388C155.511 77.388 156.236 77.2237 156.95 76.895C157.664 76.555 158.248 76.0677 158.701 75.433L159.143 75.79C158.656 76.4587 158.129 76.9743 157.562 77.337C156.996 77.6997 156.429 77.9433 155.862 78.068C155.307 78.204 154.797 78.272 154.332 78.272C153.482 78.272 152.7 78.119 151.986 77.813C151.284 77.507 150.672 77.082 150.15 76.538C149.64 75.9827 149.244 75.3423 148.96 74.617C148.688 73.8803 148.552 73.087 148.552 72.237C148.552 71.4323 148.671 70.6503 148.909 69.891C149.159 69.1317 149.527 68.446 150.014 67.834C150.502 67.222 151.114 66.7347 151.85 66.372C152.598 66.0093 153.465 65.828 154.451 65.828C155.086 65.828 155.687 65.913 156.253 66.083C156.82 66.253 157.364 66.5137 157.885 66.865L157.8 65.947H158.718V69.891H158.106ZM165.131 78.272C164.338 78.272 163.618 78.0907 162.972 77.728C162.326 77.354 161.811 76.844 161.425 76.198C161.051 75.5407 160.864 74.7927 160.864 73.954C160.864 73.0587 161.051 72.254 161.425 71.54C161.799 70.826 162.309 70.265 162.955 69.857C163.601 69.4377 164.327 69.228 165.131 69.228C165.925 69.228 166.644 69.4207 167.29 69.806C167.936 70.18 168.452 70.69 168.837 71.336C169.223 71.982 169.415 72.7187 169.415 73.546C169.415 74.4187 169.223 75.2177 168.837 75.943C168.463 76.657 167.953 77.2237 167.307 77.643C166.661 78.0623 165.936 78.272 165.131 78.272ZM165.267 77.592C165.868 77.592 166.344 77.422 166.695 77.082C167.047 76.742 167.296 76.3 167.443 75.756C167.602 75.212 167.681 74.6397 167.681 74.039C167.681 73.529 167.63 73.0303 167.528 72.543C167.438 72.0443 167.29 71.5967 167.086 71.2C166.882 70.792 166.616 70.469 166.287 70.231C165.97 69.993 165.585 69.874 165.131 69.874C164.542 69.874 164.06 70.044 163.686 70.384C163.312 70.724 163.035 71.166 162.853 71.71C162.683 72.254 162.598 72.8377 162.598 73.461C162.598 74.1637 162.695 74.8323 162.887 75.467C163.08 76.0903 163.375 76.6003 163.771 76.997C164.168 77.3937 164.667 77.592 165.267 77.592ZM171.37 78V77.49C171.721 77.49 171.965 77.405 172.101 77.235C172.237 77.0537 172.316 76.81 172.339 76.504C172.361 76.1867 172.373 75.824 172.373 75.416L172.39 71.54C172.39 71.3587 172.39 71.1773 172.39 70.996C172.401 70.8147 172.424 70.6277 172.458 70.435C172.254 70.4463 172.05 70.4577 171.846 70.469C171.653 70.4803 171.455 70.4917 171.251 70.503V69.789C171.749 69.789 172.123 69.7663 172.373 69.721C172.633 69.6757 172.826 69.619 172.951 69.551C173.075 69.483 173.177 69.4093 173.257 69.33H173.75C173.761 69.4093 173.767 69.5 173.767 69.602C173.778 69.704 173.789 69.8173 173.801 69.942C173.812 70.0667 173.818 70.2083 173.818 70.367C174.067 70.1517 174.339 69.959 174.634 69.789C174.94 69.619 175.257 69.483 175.586 69.381C175.926 69.279 176.26 69.228 176.589 69.228C177.575 69.228 178.294 69.5397 178.748 70.163C179.201 70.775 179.428 71.7327 179.428 73.036V76.198C179.428 76.4247 179.422 76.6287 179.411 76.81C179.411 76.98 179.394 77.1613 179.36 77.354C179.541 77.3427 179.717 77.337 179.887 77.337C180.068 77.3257 180.249 77.3143 180.431 77.303V78H176.963V77.49C177.314 77.49 177.558 77.405 177.694 77.235C177.83 77.0537 177.909 76.81 177.932 76.504C177.954 76.1867 177.966 75.824 177.966 75.416V73.036C177.954 72.0613 177.79 71.3247 177.473 70.826C177.167 70.3273 176.679 70.0837 176.011 70.095C175.603 70.1063 175.2 70.214 174.804 70.418C174.418 70.622 174.095 70.8827 173.835 71.2C173.846 71.2907 173.852 71.3927 173.852 71.506C173.852 71.6193 173.852 71.7383 173.852 71.863L173.835 76.198C173.835 76.4247 173.829 76.6287 173.818 76.81C173.818 76.98 173.801 77.1613 173.767 77.354C173.948 77.3427 174.124 77.337 174.294 77.337C174.475 77.3257 174.656 77.3143 174.838 77.303V78H171.37ZM182.308 78V77.49C182.659 77.49 182.903 77.405 183.039 77.235C183.175 77.0537 183.254 76.81 183.277 76.504C183.299 76.1867 183.311 75.824 183.311 75.416L183.277 70.231L181.883 70.265V69.5H183.277C183.277 68.0833 183.617 66.9953 184.297 66.236C184.988 65.4653 185.968 65.08 187.238 65.08C187.827 65.08 188.36 65.1423 188.836 65.267C189.323 65.3917 189.714 65.5673 190.009 65.794C190.303 66.0207 190.451 66.2813 190.451 66.576C190.451 66.7913 190.388 66.9783 190.264 67.137C190.139 67.2957 189.958 67.375 189.72 67.375C189.436 67.3863 189.238 67.307 189.125 67.137C189.011 66.9557 188.955 66.797 188.955 66.661C188.955 66.5817 188.96 66.5023 188.972 66.423C188.983 66.3437 189.006 66.27 189.04 66.202C188.847 66.0547 188.609 65.9413 188.326 65.862C188.054 65.7713 187.736 65.726 187.374 65.726C186.864 65.726 186.41 65.8393 186.014 66.066C185.617 66.2927 185.305 66.6383 185.079 67.103C184.852 67.5677 184.739 68.157 184.739 68.871V69.5H188.632C188.892 69.5 189.113 69.4943 189.295 69.483C189.487 69.4603 189.64 69.4377 189.754 69.415C189.867 69.381 189.935 69.3527 189.958 69.33H190.451V76.198C190.451 76.4247 190.445 76.6287 190.434 76.81C190.434 76.98 190.417 77.1613 190.383 77.354C190.564 77.3427 190.74 77.337 190.91 77.337C191.091 77.3257 191.272 77.3143 191.454 77.303V78H187.986V77.49C188.337 77.49 188.581 77.405 188.717 77.235C188.853 77.0537 188.932 76.81 188.955 76.504C188.977 76.1867 188.989 75.824 188.989 75.416V71.2C188.989 71.0187 188.994 70.8487 189.006 70.69C189.017 70.52 189.034 70.3217 189.057 70.095L184.739 70.197L184.756 76.215C184.756 76.4417 184.75 76.64 184.739 76.81C184.739 76.98 184.722 77.1613 184.688 77.354C184.869 77.3427 185.045 77.337 185.215 77.337C185.396 77.3257 185.577 77.3143 185.759 77.303V78H182.308ZM197.404 82.607C196.384 82.607 195.563 82.4937 194.939 82.267C194.316 82.0403 193.863 81.7513 193.579 81.4C193.296 81.0487 193.154 80.686 193.154 80.312C193.154 79.9607 193.234 79.649 193.392 79.377C193.562 79.1163 193.766 78.8897 194.004 78.697C194.254 78.5043 194.492 78.3627 194.718 78.272C194.356 78.1473 194.067 77.983 193.851 77.779C193.647 77.5637 193.545 77.2803 193.545 76.929C193.545 76.5323 193.704 76.164 194.021 75.824C194.339 75.4727 194.747 75.2573 195.245 75.178C194.724 74.9287 194.305 74.583 193.987 74.141C193.681 73.699 193.528 73.1833 193.528 72.594C193.528 71.914 193.704 71.3247 194.055 70.826C194.407 70.316 194.854 69.925 195.398 69.653C195.954 69.3697 196.526 69.228 197.115 69.228C197.489 69.228 197.863 69.2847 198.237 69.398C198.611 69.5 198.957 69.653 199.274 69.857C199.388 69.5397 199.546 69.2563 199.75 69.007C199.966 68.7577 200.209 68.565 200.481 68.429C200.753 68.2817 201.037 68.208 201.331 68.208C201.626 68.208 201.847 68.2873 201.994 68.446C202.153 68.5933 202.232 68.7973 202.232 69.058C202.232 69.1373 202.21 69.2337 202.164 69.347C202.119 69.4603 202.04 69.5567 201.926 69.636C201.824 69.7153 201.683 69.755 201.501 69.755C201.309 69.755 201.15 69.6983 201.025 69.585C200.901 69.4717 200.821 69.33 200.787 69.16C200.504 69.2053 200.283 69.3413 200.124 69.568C199.966 69.7833 199.858 70.0213 199.801 70.282C200.073 70.5313 200.289 70.8317 200.447 71.183C200.617 71.5343 200.702 71.9083 200.702 72.305C200.702 72.9397 200.532 73.5063 200.192 74.005C199.864 74.5037 199.427 74.8947 198.883 75.178C198.339 75.45 197.75 75.586 197.115 75.586C196.9 75.586 196.713 75.5747 196.554 75.552C196.396 75.518 196.203 75.501 195.976 75.501C195.557 75.501 195.217 75.603 194.956 75.807C194.696 76.011 194.605 76.2547 194.684 76.538C194.775 76.81 195.053 76.9857 195.517 77.065C195.982 77.133 196.605 77.184 197.387 77.218C198.26 77.252 199.008 77.354 199.631 77.524C200.255 77.694 200.731 77.9547 201.059 78.306C201.399 78.6687 201.569 79.156 201.569 79.768C201.569 80.2213 201.445 80.6237 201.195 80.975C200.957 81.3377 200.634 81.638 200.226 81.876C199.83 82.114 199.382 82.2953 198.883 82.42C198.396 82.5447 197.903 82.607 197.404 82.607ZM197.387 81.944C198.362 81.944 199.121 81.7627 199.665 81.4C200.209 81.0373 200.481 80.6123 200.481 80.125C200.481 79.7057 200.34 79.3827 200.056 79.156C199.773 78.9407 199.388 78.7877 198.9 78.697C198.413 78.6177 197.852 78.5723 197.217 78.561C196.911 78.5497 196.611 78.5327 196.316 78.51C196.022 78.4987 195.738 78.4703 195.466 78.425C195.16 78.629 194.922 78.8783 194.752 79.173C194.582 79.4677 194.497 79.7793 194.497 80.108C194.497 80.6633 194.758 81.1053 195.279 81.434C195.812 81.774 196.515 81.944 197.387 81.944ZM197.166 74.974C197.586 74.974 197.931 74.872 198.203 74.668C198.487 74.464 198.696 74.1863 198.832 73.835C198.98 73.4837 199.053 73.087 199.053 72.645C199.053 72.1463 198.98 71.6817 198.832 71.251C198.685 70.8203 198.464 70.4747 198.169 70.214C197.886 69.9533 197.523 69.823 197.081 69.823C196.469 69.823 195.993 70.0553 195.653 70.52C195.325 70.9733 195.16 71.54 195.16 72.22C195.16 72.764 195.24 73.2457 195.398 73.665C195.557 74.073 195.784 74.396 196.078 74.634C196.384 74.8607 196.747 74.974 197.166 74.974ZM214.293 73.597C214.293 73.0983 214.225 72.7413 214.089 72.526C213.953 72.3107 213.737 72.1803 213.443 72.135C213.148 72.0897 212.757 72.0783 212.27 72.101L211.029 72.152V76.045C211.029 76.351 211.023 76.6117 211.012 76.827C211.012 77.0423 211 77.2237 210.978 77.371L214.225 77.32C214.723 77.3087 215.154 77.2293 215.517 77.082C215.879 76.9233 216.163 76.6513 216.367 76.266C216.571 75.8807 216.673 75.3537 216.673 74.685H217.251L217.149 78H208.377V77.439C208.807 77.4163 209.102 77.32 209.261 77.15C209.419 76.9687 209.504 76.725 209.516 76.419C209.538 76.1017 209.55 75.7447 209.55 75.348V68.004C209.55 67.7773 209.555 67.562 209.567 67.358C209.578 67.1427 209.589 66.95 209.601 66.78C209.397 66.7913 209.193 66.8027 208.989 66.814C208.785 66.8253 208.581 66.8367 208.377 66.848V66.1H216.554L216.639 69.075H216.078C216.078 68.4063 215.976 67.902 215.772 67.562C215.568 67.2107 215.29 66.9783 214.939 66.865C214.599 66.7403 214.213 66.6837 213.783 66.695L212.321 66.729C211.901 66.7403 211.601 66.8197 211.42 66.967C211.238 67.1143 211.125 67.3353 211.08 67.63C211.046 67.9133 211.029 68.2873 211.029 68.752V71.472L214.225 71.489L214.106 70.027H214.854V73.597H214.293ZM222.913 78.272C222.222 78.272 221.598 78.102 221.043 77.762C220.488 77.4107 220.046 76.912 219.717 76.266C219.4 75.62 219.241 74.8607 219.241 73.988C219.241 73.0587 219.428 72.237 219.802 71.523C220.176 70.809 220.692 70.248 221.349 69.84C222.018 69.432 222.771 69.228 223.61 69.228C223.984 69.228 224.352 69.279 224.715 69.381C225.089 69.4717 225.384 69.5793 225.599 69.704V67.375C225.599 67.1937 225.599 67.0237 225.599 66.865C225.61 66.695 225.627 66.4967 225.65 66.27C225.446 66.2813 225.242 66.2927 225.038 66.304C224.845 66.3153 224.647 66.3267 224.443 66.338V65.624C224.942 65.624 225.327 65.6013 225.599 65.556C225.871 65.5107 226.075 65.454 226.211 65.386C226.358 65.318 226.472 65.2443 226.551 65.165H227.044V76.198C227.044 76.3793 227.038 76.5607 227.027 76.742C227.016 76.9233 226.999 77.1273 226.976 77.354C227.18 77.3427 227.378 77.3313 227.571 77.32C227.775 77.3087 227.979 77.2973 228.183 77.286V78H225.752C225.718 77.83 225.69 77.677 225.667 77.541C225.656 77.3937 225.644 77.252 225.633 77.116C225.316 77.4673 224.925 77.7507 224.46 77.966C223.995 78.17 223.48 78.272 222.913 78.272ZM223.525 77.439C223.899 77.439 224.273 77.3313 224.647 77.116C225.032 76.9007 225.35 76.6343 225.599 76.317C225.588 76.181 225.582 76.0393 225.582 75.892C225.582 75.7333 225.582 75.5633 225.582 75.382L225.599 70.486C225.327 70.282 225.027 70.1347 224.698 70.044C224.381 69.942 224.052 69.891 223.712 69.891C223.145 69.891 222.652 70.0553 222.233 70.384C221.814 70.7127 221.496 71.1717 221.281 71.761C221.066 72.3503 220.969 73.0417 220.992 73.835C221.015 74.5263 221.122 75.144 221.315 75.688C221.519 76.232 221.802 76.6627 222.165 76.98C222.539 77.286 222.992 77.439 223.525 77.439ZM229.945 77.49C230.296 77.49 230.54 77.405 230.676 77.235C230.812 77.0537 230.891 76.81 230.914 76.504C230.937 76.1867 230.948 75.824 230.948 75.416V71.54C230.948 71.3587 230.954 71.1887 230.965 71.03C230.976 70.86 230.993 70.6617 231.016 70.435C230.812 70.4463 230.608 70.4577 230.404 70.469C230.211 70.4803 230.013 70.4917 229.809 70.503V69.789C230.308 69.789 230.693 69.7663 230.965 69.721C231.237 69.6757 231.441 69.619 231.577 69.551C231.724 69.483 231.838 69.4093 231.917 69.33H232.41V76.198C232.41 76.4247 232.404 76.6287 232.393 76.81C232.393 76.98 232.376 77.1613 232.342 77.354C232.523 77.3427 232.699 77.337 232.869 77.337C233.05 77.3257 233.232 77.3143 233.413 77.303V78H229.945V77.49ZM231.594 67.647C231.356 67.647 231.146 67.5507 230.965 67.358C230.784 67.1653 230.693 66.9273 230.693 66.644C230.693 66.3607 230.784 66.1227 230.965 65.93C231.158 65.726 231.373 65.624 231.611 65.624C231.872 65.624 232.087 65.726 232.257 65.93C232.438 66.1227 232.529 66.3607 232.529 66.644C232.529 66.9273 232.433 67.1653 232.24 67.358C232.059 67.5507 231.843 67.647 231.594 67.647ZM238.698 78.272C238.437 78.272 238.171 78.2323 237.899 78.153C237.627 78.085 237.372 77.9433 237.134 77.728C236.907 77.5127 236.726 77.201 236.59 76.793C236.454 76.3737 236.386 75.824 236.386 75.144L236.42 70.214L235.111 70.231V69.5C235.406 69.4887 235.706 69.381 236.012 69.177C236.318 68.9617 236.59 68.6727 236.828 68.31C237.077 67.9473 237.247 67.5507 237.338 67.12H237.916V69.5H240.772V70.163L237.916 70.197L237.882 74.923C237.882 75.433 237.922 75.8693 238.001 76.232C238.092 76.5833 238.233 76.8497 238.426 77.031C238.619 77.2123 238.868 77.303 239.174 77.303C239.491 77.303 239.786 77.2123 240.058 77.031C240.341 76.8497 240.591 76.6003 240.806 76.283L241.265 76.657C241.016 77.031 240.766 77.3257 240.517 77.541C240.279 77.7563 240.047 77.915 239.82 78.017C239.593 78.1303 239.384 78.1983 239.191 78.221C238.998 78.255 238.834 78.272 238.698 78.272ZM246.802 78.272C246.009 78.272 245.289 78.0907 244.643 77.728C243.997 77.354 243.482 76.844 243.096 76.198C242.722 75.5407 242.535 74.7927 242.535 73.954C242.535 73.0587 242.722 72.254 243.096 71.54C243.47 70.826 243.98 70.265 244.626 69.857C245.272 69.4377 245.998 69.228 246.802 69.228C247.596 69.228 248.315 69.4207 248.961 69.806C249.607 70.18 250.123 70.69 250.508 71.336C250.894 71.982 251.086 72.7187 251.086 73.546C251.086 74.4187 250.894 75.2177 250.508 75.943C250.134 76.657 249.624 77.2237 248.978 77.643C248.332 78.0623 247.607 78.272 246.802 78.272ZM246.938 77.592C247.539 77.592 248.015 77.422 248.366 77.082C248.718 76.742 248.967 76.3 249.114 75.756C249.273 75.212 249.352 74.6397 249.352 74.039C249.352 73.529 249.301 73.0303 249.199 72.543C249.109 72.0443 248.961 71.5967 248.757 71.2C248.553 70.792 248.287 70.469 247.958 70.231C247.641 69.993 247.256 69.874 246.802 69.874C246.213 69.874 245.731 70.044 245.357 70.384C244.983 70.724 244.706 71.166 244.524 71.71C244.354 72.254 244.269 72.8377 244.269 73.461C244.269 74.1637 244.366 74.8323 244.558 75.467C244.751 76.0903 245.046 76.6003 245.442 76.997C245.839 77.3937 246.338 77.592 246.938 77.592ZM253.041 77.49C253.392 77.49 253.636 77.405 253.772 77.235C253.908 77.0537 253.987 76.81 254.01 76.504C254.032 76.1867 254.044 75.824 254.044 75.416V71.54C254.044 71.3587 254.044 71.1773 254.044 70.996C254.055 70.8147 254.078 70.6277 254.112 70.435C253.908 70.4463 253.704 70.4577 253.5 70.469C253.307 70.469 253.109 70.4747 252.905 70.486V69.789H253.432C253.919 69.789 254.253 69.7437 254.435 69.653C254.627 69.551 254.786 69.4433 254.911 69.33H255.404C255.426 69.5113 255.443 69.738 255.455 70.01C255.466 70.2707 255.477 70.605 255.489 71.013C255.659 70.7297 255.891 70.452 256.186 70.18C256.48 69.908 256.809 69.6813 257.172 69.5C257.546 69.3187 257.937 69.228 258.345 69.228C258.662 69.228 258.94 69.313 259.178 69.483C259.416 69.653 259.535 69.925 259.535 70.299C259.535 70.3897 259.506 70.503 259.45 70.639C259.393 70.7637 259.302 70.877 259.178 70.979C259.053 71.0697 258.889 71.115 258.685 71.115C258.435 71.1037 258.237 71.0073 258.09 70.826C257.942 70.6333 257.886 70.4123 257.92 70.163C257.636 70.1517 257.342 70.2253 257.036 70.384C256.741 70.5427 256.463 70.7637 256.203 71.047C255.942 71.319 255.71 71.642 255.506 72.016L255.523 76.198C255.523 76.4247 255.517 76.6287 255.506 76.81C255.506 76.98 255.489 77.1613 255.455 77.354C255.636 77.3427 255.812 77.337 255.982 77.337C256.163 77.3257 256.344 77.3143 256.526 77.303V78H253.041V77.49Z" fill="#F25700"/>
</svg>
