<svg width="260" height="88" viewBox="0 0 260 88" fill="none" xmlns="http://www.w3.org/2000/svg">
    <mask id="mask0_59_268" style="mask-type:alpha" maskUnits="userSpaceOnUse" x="0" y="0" width="88" height="88">
        <rect width="88" height="88" rx="16" fill="#D9D9D9"/>
    </mask>
    <g mask="url(#mask0_59_268)">
        <rect width="88" height="88" rx="16" fill="#222222"/>
        <rect x="-5.9549" y="-4.6316" width="27.1278" height="95.2782" fill="#009ED0" fill-opacity="0.2"/>
        <path d="M82.0451 73.4436H48.8694V70.1082C50.4145 69.9942 52.2314 69.7233 54.32 69.2957C56.4087 68.8396 57.4531 68.2837 57.4531 67.628C57.4531 67.4 57.4244 67.1434 57.3672 66.8583C57.3386 66.5732 57.2242 66.1884 57.0239 65.7038L51.8308 53.1319H30.8009C30.3145 54.3007 29.7709 55.669 29.17 57.237C28.5978 58.8049 28.0971 60.2018 27.6679 61.4276C27.1243 63.024 26.7952 64.1786 26.6808 64.8913C26.5949 65.604 26.552 66.1029 26.552 66.3879C26.552 67.3002 27.2387 68.0841 28.6121 68.7398C30.0141 69.367 32.3317 69.8231 35.5648 70.1082V73.4436H10.5865V70.1082C11.5307 70.0512 12.5893 69.9086 13.7624 69.6806C14.9641 69.424 15.9083 69.0819 16.595 68.6543C17.7681 67.9701 18.7552 67.1291 19.5564 66.1314C20.3861 65.1336 21.0728 63.9505 21.6164 62.5822C24.9354 54.5715 28.2544 46.5466 31.5734 38.5074C34.9211 30.4683 38.612 21.6024 42.6463 11.9098H51.2299C56.8379 25.6505 61.2299 36.5119 64.4058 44.494C67.5817 52.4762 70.2856 59.09 72.5173 64.3354C72.8893 65.1906 73.3614 65.9746 73.9336 66.6873C74.5059 67.3715 75.3213 68.0271 76.3799 68.6543C77.1811 69.1104 78.111 69.4525 79.1696 69.6806C80.2283 69.9086 81.1868 70.0512 82.0451 70.1082V73.4436ZM50.0711 48.8985L41.23 26.9191L32.5176 48.8985H50.0711Z"
              fill="#009ED0"/>
        <line x1="21.5113" y1="-5.61655" x2="21.5113" y2="94.9398" stroke="#009ED0" stroke-width="2"
              stroke-linecap="round" stroke-dasharray="7 7"/>
    </g>
    <path d="M109.084 25V23.551C109.476 23.551 109.791 23.439 110.029 23.215C110.267 22.991 110.463 22.697 110.617 22.333C110.785 21.969 110.946 21.577 111.1 21.157L115.195 9.922H116.665L121.138 21.367C121.222 21.577 121.334 21.899 121.474 22.333C121.614 22.753 121.698 23.124 121.726 23.446C121.964 23.418 122.188 23.404 122.398 23.404C122.622 23.39 122.804 23.383 122.944 23.383V25H117.295V23.614C117.687 23.614 117.953 23.537 118.093 23.383C118.247 23.215 118.317 22.991 118.303 22.711C118.289 22.431 118.212 22.116 118.072 21.766L117.652 20.611L113.095 20.695L112.759 21.682C112.689 21.864 112.584 22.137 112.444 22.501C112.318 22.851 112.199 23.145 112.087 23.383C112.311 23.355 112.577 23.341 112.885 23.341C113.207 23.327 113.438 23.32 113.578 23.32V25H109.084ZM113.62 19.12H117.127L116.161 16.495C115.979 15.991 115.818 15.487 115.678 14.983C115.538 14.465 115.433 14.01 115.363 13.618H115.342C115.286 13.856 115.202 14.213 115.09 14.689C114.978 15.165 114.803 15.732 114.565 16.39L113.62 19.12ZM126.634 25.063L124.093 17.776C123.967 17.412 123.869 17.139 123.799 16.957C123.743 16.775 123.701 16.621 123.673 16.495C123.645 16.369 123.61 16.222 123.568 16.054L122.749 16.096V14.5H127.789V15.844C127.355 15.858 127.103 16.026 127.033 16.348C126.963 16.67 126.984 17.048 127.096 17.482L127.81 20.044C127.894 20.352 127.971 20.681 128.041 21.031C128.125 21.367 128.195 21.703 128.251 22.039C128.321 21.745 128.391 21.423 128.461 21.073C128.545 20.723 128.664 20.289 128.818 19.771L130.351 14.5H132.64L134.32 20.296C134.404 20.59 134.488 20.912 134.572 21.262C134.67 21.598 134.754 21.906 134.824 22.186C134.88 21.906 134.957 21.598 135.055 21.262C135.153 20.926 135.244 20.625 135.328 20.359L136.147 17.692C136.259 17.314 136.357 17.006 136.441 16.768C136.525 16.516 136.63 16.264 136.756 16.012L135.559 16.096V14.5H139.549V15.844C139.269 15.844 139.024 15.935 138.814 16.117C138.604 16.299 138.415 16.523 138.247 16.789C138.093 17.041 137.967 17.293 137.869 17.545C137.771 17.783 137.701 17.972 137.659 18.112L135.265 25.063H133.039L131.59 20.59C131.548 20.436 131.478 20.212 131.38 19.918C131.296 19.624 131.205 19.309 131.107 18.973C131.023 18.623 130.939 18.301 130.855 18.007C130.785 18.399 130.68 18.847 130.54 19.351C130.4 19.855 130.267 20.317 130.141 20.737C130.015 21.157 129.924 21.444 129.868 21.598L128.713 25.063H126.634ZM145.446 25.336C144.424 25.336 143.521 25.112 142.737 24.664C141.953 24.202 141.344 23.558 140.91 22.732C140.476 21.892 140.259 20.905 140.259 19.771C140.259 18.791 140.476 17.874 140.91 17.02C141.344 16.166 141.953 15.48 142.737 14.962C143.535 14.43 144.459 14.164 145.509 14.164C146.097 14.164 146.671 14.248 147.231 14.416C147.791 14.57 148.295 14.843 148.743 15.235C149.205 15.627 149.569 16.159 149.835 16.831C150.115 17.503 150.248 18.343 150.234 19.351L143.346 19.477C143.346 20.233 143.437 20.912 143.619 21.514C143.815 22.116 144.13 22.592 144.564 22.942C144.998 23.292 145.579 23.467 146.307 23.467C146.587 23.467 146.902 23.418 147.252 23.32C147.616 23.222 147.98 23.061 148.344 22.837C148.722 22.599 149.072 22.284 149.394 21.892L150.339 22.774C149.835 23.488 149.296 24.034 148.722 24.412C148.148 24.776 147.574 25.021 147 25.147C146.44 25.273 145.922 25.336 145.446 25.336ZM143.472 18.007H147.336C147.322 17.419 147.238 16.957 147.084 16.621C146.944 16.271 146.748 16.019 146.496 15.865C146.244 15.711 145.95 15.634 145.614 15.634C144.998 15.634 144.515 15.858 144.165 16.306C143.815 16.74 143.584 17.307 143.472 18.007ZM156.808 25.336C156.206 25.336 155.618 25.259 155.044 25.105C154.47 24.951 154.022 24.755 153.7 24.517L153.742 25.147H152.146L152.062 21.535H153.427C153.469 21.955 153.637 22.34 153.931 22.69C154.225 23.04 154.61 23.32 155.086 23.53C155.562 23.726 156.094 23.824 156.682 23.824C156.92 23.824 157.144 23.789 157.354 23.719C157.578 23.649 157.76 23.537 157.9 23.383C158.054 23.215 158.131 23.012 158.131 22.774C158.131 22.508 158.033 22.291 157.837 22.123C157.655 21.955 157.382 21.794 157.018 21.64C156.668 21.486 156.227 21.311 155.695 21.115C155.261 20.947 154.82 20.772 154.372 20.59C153.938 20.408 153.532 20.191 153.154 19.939C152.79 19.673 152.496 19.351 152.272 18.973C152.048 18.581 151.936 18.105 151.936 17.545C151.936 17.139 152.013 16.74 152.167 16.348C152.321 15.942 152.559 15.578 152.881 15.256C153.203 14.92 153.609 14.654 154.099 14.458C154.603 14.262 155.198 14.164 155.884 14.164C156.262 14.164 156.689 14.227 157.165 14.353C157.655 14.465 158.068 14.64 158.404 14.878V14.269H160V17.986H158.635C158.551 17.496 158.376 17.076 158.11 16.726C157.858 16.376 157.529 16.11 157.123 15.928C156.717 15.732 156.262 15.634 155.758 15.634C155.408 15.634 155.086 15.718 154.792 15.886C154.512 16.054 154.372 16.341 154.372 16.747C154.372 17.069 154.484 17.328 154.708 17.524C154.932 17.706 155.24 17.86 155.632 17.986C156.024 18.112 156.458 18.259 156.934 18.427C157.648 18.665 158.278 18.945 158.824 19.267C159.384 19.589 159.825 19.981 160.147 20.443C160.469 20.891 160.63 21.444 160.63 22.102C160.63 22.83 160.448 23.432 160.084 23.908C159.72 24.384 159.244 24.741 158.656 24.979C158.082 25.217 157.466 25.336 156.808 25.336ZM167.526 25.336C166.518 25.336 165.608 25.119 164.796 24.685C163.984 24.251 163.34 23.635 162.864 22.837C162.402 22.025 162.171 21.073 162.171 19.981C162.171 18.819 162.409 17.804 162.885 16.936C163.375 16.054 164.019 15.375 164.817 14.899C165.629 14.409 166.511 14.164 167.463 14.164C168.471 14.164 169.374 14.381 170.172 14.815C170.97 15.249 171.6 15.872 172.062 16.684C172.524 17.482 172.755 18.441 172.755 19.561C172.755 20.737 172.531 21.759 172.083 22.627C171.635 23.495 171.019 24.167 170.235 24.643C169.451 25.105 168.548 25.336 167.526 25.336ZM167.61 23.845C168.17 23.831 168.59 23.635 168.87 23.257C169.164 22.879 169.367 22.403 169.479 21.829C169.591 21.255 169.647 20.674 169.647 20.086C169.647 19.568 169.605 19.043 169.521 18.511C169.451 17.979 169.332 17.496 169.164 17.062C168.996 16.628 168.765 16.278 168.471 16.012C168.191 15.746 167.841 15.62 167.421 15.634C166.875 15.648 166.441 15.844 166.119 16.222C165.811 16.6 165.587 17.076 165.447 17.65C165.321 18.21 165.258 18.798 165.258 19.414C165.258 20.128 165.335 20.828 165.489 21.514C165.643 22.2 165.888 22.767 166.224 23.215C166.574 23.649 167.036 23.859 167.61 23.845ZM174.485 25V23.635C174.877 23.635 175.157 23.558 175.325 23.404C175.493 23.25 175.598 23.033 175.64 22.753C175.696 22.459 175.724 22.13 175.724 21.766V18.238C175.724 17.986 175.731 17.706 175.745 17.398C175.759 17.076 175.78 16.761 175.808 16.453C175.584 16.467 175.318 16.481 175.01 16.495C174.716 16.495 174.492 16.502 174.338 16.516V14.92C174.982 14.92 175.528 14.885 175.976 14.815C176.424 14.745 176.774 14.661 177.026 14.563C177.292 14.465 177.474 14.374 177.572 14.29H178.601C178.629 14.43 178.643 14.605 178.643 14.815C178.657 15.025 178.671 15.2 178.685 15.34C179.161 14.976 179.672 14.689 180.218 14.479C180.778 14.269 181.303 14.164 181.793 14.164C182.437 14.164 182.969 14.283 183.389 14.521C183.809 14.745 184.145 15.088 184.397 15.55C184.901 15.13 185.454 14.794 186.056 14.542C186.672 14.29 187.26 14.164 187.82 14.164C188.954 14.164 189.808 14.493 190.382 15.151C190.97 15.795 191.264 16.922 191.264 18.532V21.619C191.264 21.815 191.257 22.095 191.243 22.459C191.229 22.809 191.208 23.145 191.18 23.467C191.404 23.439 191.649 23.425 191.915 23.425C192.195 23.411 192.405 23.404 192.545 23.404V25H187.232V23.635C187.554 23.635 187.785 23.558 187.925 23.404C188.079 23.25 188.177 23.033 188.219 22.753C188.261 22.459 188.282 22.13 188.282 21.766V18.553C188.268 17.643 188.114 17.013 187.82 16.663C187.54 16.313 187.162 16.131 186.686 16.117C186.322 16.103 185.979 16.166 185.657 16.306C185.349 16.446 185.069 16.614 184.817 16.81C184.887 17.09 184.936 17.398 184.964 17.734C184.992 18.07 185.006 18.427 185.006 18.805C185.006 19.281 185.006 19.75 185.006 20.212C185.006 20.674 185.006 21.143 185.006 21.619C185.006 21.815 184.999 22.095 184.985 22.459C184.971 22.809 184.95 23.145 184.922 23.467C185.146 23.439 185.391 23.425 185.657 23.425C185.923 23.411 186.133 23.404 186.287 23.404V25H180.869V23.635C181.233 23.635 181.492 23.558 181.646 23.404C181.814 23.25 181.919 23.033 181.961 22.753C182.003 22.459 182.024 22.13 182.024 21.766L182.003 18.49C182.003 17.58 181.87 16.957 181.604 16.621C181.338 16.285 180.967 16.11 180.491 16.096C180.141 16.096 179.812 16.173 179.504 16.327C179.21 16.481 178.944 16.663 178.706 16.873C178.706 17.055 178.706 17.23 178.706 17.398C178.706 17.566 178.706 17.741 178.706 17.923V21.619C178.706 21.815 178.699 22.095 178.685 22.459C178.671 22.809 178.65 23.145 178.622 23.467C178.846 23.439 179.077 23.425 179.315 23.425C179.553 23.411 179.742 23.404 179.882 23.404V25H174.485ZM198.991 25.336C197.969 25.336 197.066 25.112 196.282 24.664C195.498 24.202 194.889 23.558 194.455 22.732C194.021 21.892 193.804 20.905 193.804 19.771C193.804 18.791 194.021 17.874 194.455 17.02C194.889 16.166 195.498 15.48 196.282 14.962C197.08 14.43 198.004 14.164 199.054 14.164C199.642 14.164 200.216 14.248 200.776 14.416C201.336 14.57 201.84 14.843 202.288 15.235C202.75 15.627 203.114 16.159 203.38 16.831C203.66 17.503 203.793 18.343 203.779 19.351L196.891 19.477C196.891 20.233 196.982 20.912 197.164 21.514C197.36 22.116 197.675 22.592 198.109 22.942C198.543 23.292 199.124 23.467 199.852 23.467C200.132 23.467 200.447 23.418 200.797 23.32C201.161 23.222 201.525 23.061 201.889 22.837C202.267 22.599 202.617 22.284 202.939 21.892L203.884 22.774C203.38 23.488 202.841 24.034 202.267 24.412C201.693 24.776 201.119 25.021 200.545 25.147C199.985 25.273 199.467 25.336 198.991 25.336ZM197.017 18.007H200.881C200.867 17.419 200.783 16.957 200.629 16.621C200.489 16.271 200.293 16.019 200.041 15.865C199.789 15.711 199.495 15.634 199.159 15.634C198.543 15.634 198.06 15.858 197.71 16.306C197.36 16.74 197.129 17.307 197.017 18.007ZM120.907 41.046C120.907 40.29 120.802 39.667 120.592 39.177C120.382 38.673 120.081 38.302 119.689 38.064C119.311 37.812 118.856 37.693 118.324 37.707H117.316V47.556C117.316 47.934 117.309 48.298 117.295 48.648C117.281 48.998 117.26 49.264 117.232 49.446C117.47 49.418 117.771 49.404 118.135 49.404C118.513 49.39 118.772 49.383 118.912 49.383V51H112.78V49.614C113.102 49.6 113.368 49.558 113.578 49.488C113.802 49.418 113.97 49.257 114.082 49.005C114.208 48.753 114.271 48.347 114.271 47.787V37.728H113.305C112.507 37.742 111.877 38.015 111.415 38.547C110.953 39.079 110.722 39.912 110.722 41.046H109.336L109.441 36.3H122.167L122.293 41.046H120.907ZM125.976 56.691C125.444 56.691 124.989 56.53 124.611 56.208C124.247 55.9 124.065 55.487 124.065 54.969C124.065 54.591 124.184 54.255 124.422 53.961C124.674 53.681 124.996 53.534 125.388 53.52C125.696 53.506 125.955 53.604 126.165 53.814C126.389 54.038 126.501 54.339 126.501 54.717C126.501 54.759 126.501 54.801 126.501 54.843C126.501 54.885 126.494 54.934 126.48 54.99C126.508 54.99 126.543 54.983 126.585 54.969C126.711 54.927 126.844 54.808 126.984 54.612C127.138 54.43 127.285 54.185 127.425 53.877C127.579 53.555 127.726 53.191 127.866 52.785C128.02 52.393 128.153 51.98 128.265 51.546L124.947 44.889C124.555 44.105 124.296 43.517 124.17 43.125C124.058 42.719 123.981 42.362 123.939 42.054L122.973 42.096V40.5H128.202V41.844C127.684 41.9 127.397 42.096 127.341 42.432C127.299 42.768 127.362 43.118 127.53 43.482L129.588 48.186C129.728 47.822 129.91 47.262 130.134 46.506C130.358 45.736 130.624 44.903 130.932 44.007C130.988 43.825 131.058 43.615 131.142 43.377C131.24 43.125 131.345 42.88 131.457 42.642C131.569 42.39 131.688 42.187 131.814 42.033L130.617 42.096V40.5H134.355V41.844C133.921 41.942 133.557 42.208 133.263 42.642C132.983 43.076 132.731 43.608 132.507 44.238L129.882 51.735C129.49 52.869 129.119 53.8 128.769 54.528C128.419 55.27 128.027 55.816 127.593 56.166C127.159 56.516 126.62 56.691 125.976 56.691ZM135.296 56.355V54.99C135.688 54.99 135.968 54.913 136.136 54.759C136.318 54.605 136.43 54.381 136.472 54.087C136.528 53.807 136.556 53.485 136.556 53.121V44.238C136.556 43.986 136.563 43.706 136.577 43.398C136.591 43.076 136.612 42.761 136.64 42.453C136.416 42.467 136.15 42.481 135.842 42.495C135.534 42.495 135.303 42.502 135.149 42.516V40.92C135.807 40.92 136.353 40.885 136.787 40.815C137.235 40.745 137.585 40.661 137.837 40.563C138.103 40.465 138.285 40.374 138.383 40.29H139.412C139.44 40.43 139.461 40.605 139.475 40.815C139.489 41.011 139.503 41.172 139.517 41.298C140.007 40.878 140.49 40.584 140.966 40.416C141.456 40.248 141.918 40.164 142.352 40.164C143.192 40.164 143.927 40.381 144.557 40.815C145.201 41.249 145.698 41.865 146.048 42.663C146.412 43.461 146.594 44.399 146.594 45.477C146.594 46.597 146.377 47.605 145.943 48.501C145.509 49.383 144.9 50.076 144.116 50.58C143.346 51.084 142.436 51.336 141.386 51.336C141.008 51.336 140.665 51.294 140.357 51.21C140.063 51.14 139.783 51.056 139.517 50.958V52.974C139.517 53.17 139.51 53.443 139.496 53.793C139.496 54.157 139.482 54.5 139.454 54.822C139.678 54.794 139.923 54.773 140.189 54.759C140.455 54.759 140.658 54.759 140.798 54.759V56.355H135.296ZM141.05 49.761C141.694 49.747 142.191 49.558 142.541 49.194C142.905 48.816 143.157 48.326 143.297 47.724C143.437 47.122 143.507 46.478 143.507 45.792C143.507 45.148 143.43 44.539 143.276 43.965C143.122 43.391 142.877 42.929 142.541 42.579C142.205 42.215 141.764 42.04 141.218 42.054C140.868 42.068 140.546 42.159 140.252 42.327C139.958 42.481 139.713 42.698 139.517 42.978C139.517 43.412 139.517 43.846 139.517 44.28C139.517 44.7 139.517 45.12 139.517 45.54C139.517 45.96 139.517 46.387 139.517 46.821C139.517 47.241 139.517 47.668 139.517 48.102C139.517 48.522 139.517 48.949 139.517 49.383C139.671 49.481 139.888 49.572 140.168 49.656C140.448 49.74 140.742 49.775 141.05 49.761ZM153.473 51.336C152.465 51.336 151.555 51.119 150.743 50.685C149.931 50.251 149.287 49.635 148.811 48.837C148.349 48.025 148.118 47.073 148.118 45.981C148.118 44.819 148.356 43.804 148.832 42.936C149.322 42.054 149.966 41.375 150.764 40.899C151.576 40.409 152.458 40.164 153.41 40.164C154.418 40.164 155.321 40.381 156.119 40.815C156.917 41.249 157.547 41.872 158.009 42.684C158.471 43.482 158.702 44.441 158.702 45.561C158.702 46.737 158.478 47.759 158.03 48.627C157.582 49.495 156.966 50.167 156.182 50.643C155.398 51.105 154.495 51.336 153.473 51.336ZM153.557 49.845C154.117 49.831 154.537 49.635 154.817 49.257C155.111 48.879 155.314 48.403 155.426 47.829C155.538 47.255 155.594 46.674 155.594 46.086C155.594 45.568 155.552 45.043 155.468 44.511C155.398 43.979 155.279 43.496 155.111 43.062C154.943 42.628 154.712 42.278 154.418 42.012C154.138 41.746 153.788 41.62 153.368 41.634C152.822 41.648 152.388 41.844 152.066 42.222C151.758 42.6 151.534 43.076 151.394 43.65C151.268 44.21 151.205 44.798 151.205 45.414C151.205 46.128 151.282 46.828 151.436 47.514C151.59 48.2 151.835 48.767 152.171 49.215C152.521 49.649 152.983 49.859 153.557 49.845ZM164.947 56.691C163.743 56.691 162.791 56.558 162.091 56.292C161.391 56.04 160.894 55.704 160.6 55.284C160.306 54.864 160.159 54.416 160.159 53.94C160.159 53.646 160.222 53.352 160.348 53.058C160.474 52.764 160.677 52.477 160.957 52.197C161.251 51.931 161.65 51.707 162.154 51.525C161.58 51.371 161.174 51.126 160.936 50.79C160.712 50.44 160.6 50.069 160.6 49.677C160.6 49.313 160.747 48.907 161.041 48.459C161.335 47.997 161.867 47.647 162.637 47.409C162.049 47.171 161.566 46.8 161.188 46.296C160.81 45.792 160.607 45.183 160.579 44.469C160.551 43.629 160.761 42.887 161.209 42.243C161.657 41.585 162.245 41.074 162.973 40.71C163.701 40.346 164.464 40.164 165.262 40.164C165.626 40.164 166.046 40.213 166.522 40.311C166.998 40.409 167.411 40.577 167.761 40.815C167.915 40.381 168.111 39.975 168.349 39.597C168.601 39.205 168.902 38.89 169.252 38.652C169.602 38.4 169.994 38.274 170.428 38.274C170.904 38.274 171.261 38.4 171.499 38.652C171.751 38.89 171.877 39.212 171.877 39.618C171.877 39.786 171.835 39.975 171.751 40.185C171.681 40.381 171.548 40.549 171.352 40.689C171.17 40.829 170.911 40.899 170.575 40.899C170.365 40.899 170.155 40.822 169.945 40.668C169.735 40.5 169.609 40.304 169.567 40.08C169.385 40.136 169.203 40.318 169.021 40.626C168.839 40.934 168.734 41.207 168.706 41.445C169.112 41.795 169.42 42.201 169.63 42.663C169.84 43.125 169.945 43.622 169.945 44.154C169.945 44.966 169.714 45.687 169.252 46.317C168.804 46.933 168.216 47.423 167.488 47.787C166.774 48.137 166.004 48.312 165.178 48.312C164.996 48.312 164.793 48.305 164.569 48.291C164.345 48.263 164.128 48.249 163.918 48.249C163.61 48.249 163.351 48.305 163.141 48.417C162.931 48.529 162.826 48.683 162.826 48.879C162.826 49.145 163.029 49.327 163.435 49.425C163.841 49.523 164.534 49.6 165.514 49.656C166.592 49.712 167.53 49.852 168.328 50.076C169.14 50.286 169.77 50.622 170.218 51.084C170.666 51.546 170.89 52.183 170.89 52.995C170.89 53.597 170.715 54.122 170.365 54.57C170.015 55.032 169.546 55.417 168.958 55.725C168.384 56.047 167.747 56.285 167.047 56.439C166.347 56.607 165.647 56.691 164.947 56.691ZM165.556 55.242C166.55 55.242 167.299 55.06 167.803 54.696C168.321 54.332 168.58 53.954 168.58 53.562C168.58 53.268 168.468 53.023 168.244 52.827C168.02 52.645 167.684 52.498 167.236 52.386C166.802 52.274 166.242 52.204 165.556 52.176C165.248 52.148 164.891 52.127 164.485 52.113C164.079 52.099 163.722 52.064 163.414 52.008C163.204 52.176 163.043 52.386 162.931 52.638C162.819 52.89 162.756 53.135 162.742 53.373C162.714 53.933 162.952 54.381 163.456 54.717C163.974 55.067 164.674 55.242 165.556 55.242ZM165.262 46.905C165.64 46.905 165.955 46.786 166.207 46.548C166.473 46.31 166.669 46.009 166.795 45.645C166.935 45.281 167.005 44.91 167.005 44.532C167.005 44.042 166.942 43.573 166.816 43.125C166.69 42.663 166.494 42.292 166.228 42.012C165.976 41.718 165.647 41.571 165.241 41.571C164.681 41.571 164.247 41.823 163.939 42.327C163.631 42.831 163.477 43.405 163.477 44.049C163.477 44.539 163.547 45.008 163.687 45.456C163.827 45.89 164.03 46.24 164.296 46.506C164.562 46.772 164.884 46.905 165.262 46.905ZM172.332 49.635C172.724 49.635 173.004 49.558 173.172 49.404C173.34 49.25 173.445 49.033 173.487 48.753C173.543 48.459 173.571 48.13 173.571 47.766V44.238C173.571 43.986 173.578 43.706 173.592 43.398C173.606 43.076 173.627 42.761 173.655 42.453C173.431 42.467 173.165 42.481 172.857 42.495C172.563 42.495 172.339 42.502 172.185 42.516V40.92H173.025C173.571 40.92 174.068 40.85 174.516 40.71C174.978 40.57 175.279 40.43 175.419 40.29H176.448C176.476 40.43 176.497 40.696 176.511 41.088C176.525 41.466 176.532 41.802 176.532 42.096C176.91 41.634 177.267 41.263 177.603 40.983C177.939 40.703 178.268 40.5 178.59 40.374C178.926 40.234 179.262 40.164 179.598 40.164C180.088 40.164 180.515 40.304 180.879 40.584C181.243 40.85 181.425 41.291 181.425 41.907C181.425 42.117 181.376 42.341 181.278 42.579C181.18 42.803 181.026 42.992 180.816 43.146C180.606 43.3 180.319 43.377 179.955 43.377C179.675 43.377 179.388 43.293 179.094 43.125C178.8 42.957 178.632 42.635 178.59 42.159C178.31 42.159 178.03 42.278 177.75 42.516C177.47 42.74 177.218 43.013 176.994 43.335C176.784 43.643 176.637 43.93 176.553 44.196V47.619C176.553 47.815 176.546 48.095 176.532 48.459C176.518 48.809 176.497 49.145 176.469 49.467C176.693 49.439 176.938 49.425 177.204 49.425C177.484 49.411 177.694 49.404 177.834 49.404V51H172.332V49.635ZM188.367 51C188.339 50.804 188.318 50.643 188.304 50.517C188.304 50.377 188.297 50.216 188.283 50.034C187.807 50.51 187.303 50.846 186.771 51.042C186.239 51.238 185.7 51.336 185.154 51.336C184.258 51.336 183.558 51.07 183.054 50.538C182.55 50.006 182.298 49.341 182.298 48.543C182.298 47.871 182.466 47.297 182.802 46.821C183.152 46.345 183.607 45.96 184.167 45.666C184.741 45.358 185.371 45.127 186.057 44.973C186.757 44.805 187.457 44.707 188.157 44.679V43.587C188.157 43.223 188.108 42.894 188.01 42.6C187.926 42.306 187.772 42.075 187.548 41.907C187.338 41.739 187.037 41.662 186.645 41.676C186.379 41.69 186.12 41.746 185.868 41.844C185.616 41.942 185.399 42.082 185.217 42.264C185.329 42.39 185.399 42.53 185.427 42.684C185.455 42.824 185.469 42.95 185.469 43.062C185.469 43.342 185.357 43.636 185.133 43.944C184.909 44.238 184.552 44.378 184.062 44.364C183.642 44.35 183.32 44.203 183.096 43.923C182.872 43.643 182.76 43.314 182.76 42.936C182.76 42.376 182.956 41.893 183.348 41.487C183.754 41.067 184.293 40.745 184.965 40.521C185.637 40.283 186.379 40.164 187.191 40.164C188.423 40.164 189.375 40.486 190.047 41.13C190.733 41.76 191.076 42.775 191.076 44.175C191.076 44.651 191.076 45.057 191.076 45.393C191.076 45.729 191.069 46.065 191.055 46.401C191.055 46.737 191.055 47.143 191.055 47.619C191.055 47.815 191.048 48.095 191.034 48.459C191.02 48.809 190.999 49.145 190.971 49.467C191.209 49.439 191.461 49.425 191.727 49.425C191.993 49.411 192.196 49.404 192.336 49.404V51H188.367ZM188.136 46.17C187.744 46.212 187.373 46.282 187.023 46.38C186.673 46.478 186.365 46.611 186.099 46.779C185.847 46.947 185.644 47.15 185.49 47.388C185.35 47.626 185.28 47.892 185.28 48.186C185.294 48.578 185.42 48.858 185.658 49.026C185.896 49.194 186.169 49.278 186.477 49.278C186.799 49.278 187.1 49.208 187.38 49.068C187.66 48.928 187.912 48.746 188.136 48.522C188.136 48.382 188.136 48.249 188.136 48.123C188.136 47.983 188.136 47.843 188.136 47.703C188.136 47.451 188.136 47.199 188.136 46.947C188.136 46.681 188.136 46.422 188.136 46.17ZM193.542 56.355V54.99C193.934 54.99 194.214 54.913 194.382 54.759C194.564 54.605 194.676 54.381 194.718 54.087C194.774 53.807 194.802 53.485 194.802 53.121V44.238C194.802 43.986 194.809 43.706 194.823 43.398C194.837 43.076 194.858 42.761 194.886 42.453C194.662 42.467 194.396 42.481 194.088 42.495C193.78 42.495 193.549 42.502 193.395 42.516V40.92C194.053 40.92 194.599 40.885 195.033 40.815C195.481 40.745 195.831 40.661 196.083 40.563C196.349 40.465 196.531 40.374 196.629 40.29H197.658C197.686 40.43 197.707 40.605 197.721 40.815C197.735 41.011 197.749 41.172 197.763 41.298C198.253 40.878 198.736 40.584 199.212 40.416C199.702 40.248 200.164 40.164 200.598 40.164C201.438 40.164 202.173 40.381 202.803 40.815C203.447 41.249 203.944 41.865 204.294 42.663C204.658 43.461 204.84 44.399 204.84 45.477C204.84 46.597 204.623 47.605 204.189 48.501C203.755 49.383 203.146 50.076 202.362 50.58C201.592 51.084 200.682 51.336 199.632 51.336C199.254 51.336 198.911 51.294 198.603 51.21C198.309 51.14 198.029 51.056 197.763 50.958V52.974C197.763 53.17 197.756 53.443 197.742 53.793C197.742 54.157 197.728 54.5 197.7 54.822C197.924 54.794 198.169 54.773 198.435 54.759C198.701 54.759 198.904 54.759 199.044 54.759V56.355H193.542ZM199.296 49.761C199.94 49.747 200.437 49.558 200.787 49.194C201.151 48.816 201.403 48.326 201.543 47.724C201.683 47.122 201.753 46.478 201.753 45.792C201.753 45.148 201.676 44.539 201.522 43.965C201.368 43.391 201.123 42.929 200.787 42.579C200.451 42.215 200.01 42.04 199.464 42.054C199.114 42.068 198.792 42.159 198.498 42.327C198.204 42.481 197.959 42.698 197.763 42.978C197.763 43.412 197.763 43.846 197.763 44.28C197.763 44.7 197.763 45.12 197.763 45.54C197.763 45.96 197.763 46.387 197.763 46.821C197.763 47.241 197.763 47.668 197.763 48.102C197.763 48.522 197.763 48.949 197.763 49.383C197.917 49.481 198.134 49.572 198.414 49.656C198.694 49.74 198.988 49.775 199.296 49.761ZM212.75 49.635C213.142 49.635 213.422 49.558 213.59 49.404C213.772 49.25 213.884 49.033 213.926 48.753C213.982 48.459 214.01 48.13 214.01 47.766L213.989 44.784C213.989 43.874 213.849 43.202 213.569 42.768C213.303 42.32 212.876 42.096 212.288 42.096C211.938 42.096 211.588 42.173 211.238 42.327C210.902 42.481 210.615 42.663 210.377 42.873V47.619C210.377 47.815 210.37 48.095 210.356 48.459C210.342 48.809 210.321 49.145 210.293 49.467C210.531 49.439 210.783 49.425 211.049 49.425C211.315 49.411 211.518 49.404 211.658 49.404V51H206.156V49.635C206.548 49.635 206.828 49.558 206.996 49.404C207.178 49.25 207.29 49.033 207.332 48.753C207.374 48.459 207.395 48.13 207.395 47.766V39.135C207.395 38.883 207.402 38.596 207.416 38.274C207.43 37.938 207.451 37.616 207.479 37.308C207.255 37.322 206.989 37.336 206.681 37.35C206.387 37.35 206.163 37.357 206.009 37.371V35.775C206.667 35.775 207.213 35.74 207.647 35.67C208.095 35.6 208.445 35.516 208.697 35.418C208.963 35.32 209.145 35.229 209.243 35.145H210.377V41.34C210.657 41.116 210.979 40.92 211.343 40.752C211.707 40.57 212.078 40.43 212.456 40.332C212.834 40.22 213.163 40.164 213.443 40.164C214.731 40.164 215.641 40.535 216.173 41.277C216.705 42.005 216.978 43.181 216.992 44.805V47.619C216.992 47.815 216.985 48.095 216.971 48.459C216.957 48.809 216.936 49.145 216.908 49.467C217.132 49.439 217.377 49.425 217.643 49.425C217.909 49.411 218.119 49.404 218.273 49.404V51H212.75V49.635ZM221.664 56.691C221.132 56.691 220.677 56.53 220.299 56.208C219.935 55.9 219.753 55.487 219.753 54.969C219.753 54.591 219.872 54.255 220.11 53.961C220.362 53.681 220.684 53.534 221.076 53.52C221.384 53.506 221.643 53.604 221.853 53.814C222.077 54.038 222.189 54.339 222.189 54.717C222.189 54.759 222.189 54.801 222.189 54.843C222.189 54.885 222.182 54.934 222.168 54.99C222.196 54.99 222.231 54.983 222.273 54.969C222.399 54.927 222.532 54.808 222.672 54.612C222.826 54.43 222.973 54.185 223.113 53.877C223.267 53.555 223.414 53.191 223.554 52.785C223.708 52.393 223.841 51.98 223.953 51.546L220.635 44.889C220.243 44.105 219.984 43.517 219.858 43.125C219.746 42.719 219.669 42.362 219.627 42.054L218.661 42.096V40.5H223.89V41.844C223.372 41.9 223.085 42.096 223.029 42.432C222.987 42.768 223.05 43.118 223.218 43.482L225.276 48.186C225.416 47.822 225.598 47.262 225.822 46.506C226.046 45.736 226.312 44.903 226.62 44.007C226.676 43.825 226.746 43.615 226.83 43.377C226.928 43.125 227.033 42.88 227.145 42.642C227.257 42.39 227.376 42.187 227.502 42.033L226.305 42.096V40.5H230.043V41.844C229.609 41.942 229.245 42.208 228.951 42.642C228.671 43.076 228.419 43.608 228.195 44.238L225.57 51.735C225.178 52.869 224.807 53.8 224.457 54.528C224.107 55.27 223.715 55.816 223.281 56.166C222.847 56.516 222.308 56.691 221.664 56.691Z"
          fill="#222222"/>
    <path d="M111.935 78V77.439C112.366 77.4163 112.66 77.32 112.819 77.15C112.978 76.9687 113.063 76.725 113.074 76.419C113.097 76.1017 113.108 75.7447 113.108 75.348V68.004C113.108 67.7773 113.114 67.562 113.125 67.358C113.136 67.1427 113.148 66.95 113.159 66.78C112.955 66.7913 112.751 66.8027 112.547 66.814C112.343 66.8253 112.139 66.8367 111.935 66.848V66.1C112.57 66.0887 113.21 66.0773 113.856 66.066C114.513 66.0547 115.171 66.0603 115.828 66.083C116.927 66.0943 117.811 66.2247 118.48 66.474C119.16 66.712 119.659 67.0577 119.976 67.511C120.293 67.953 120.452 68.4913 120.452 69.126C120.463 69.568 120.378 70.0213 120.197 70.486C120.027 70.9393 119.71 71.3473 119.245 71.71C118.792 72.0727 118.134 72.3447 117.273 72.526C117.5 72.6847 117.698 72.8887 117.868 73.138C118.038 73.3873 118.231 73.6763 118.446 74.005L119.602 75.824C119.795 76.13 119.982 76.4077 120.163 76.657C120.344 76.895 120.554 77.0877 120.792 77.235C121.03 77.371 121.325 77.439 121.676 77.439V78H119.534C119.205 77.7053 118.928 77.4107 118.701 77.116C118.486 76.8213 118.259 76.487 118.021 76.113L116.882 74.294C116.735 74.056 116.565 73.784 116.372 73.478C116.191 73.1607 115.981 72.8943 115.743 72.679C115.562 72.6903 115.369 72.696 115.165 72.696C114.972 72.696 114.78 72.6903 114.587 72.679V75.977C114.587 76.283 114.581 76.5493 114.57 76.776C114.57 76.9913 114.559 77.1727 114.536 77.32C114.672 77.3087 114.808 77.303 114.944 77.303C115.08 77.2917 115.216 77.2803 115.352 77.269C115.488 77.2577 115.624 77.252 115.76 77.252V78H111.935ZM115.641 72.05C116.264 72.0273 116.808 71.9253 117.273 71.744C117.749 71.5627 118.123 71.2737 118.395 70.877C118.667 70.4803 118.803 69.959 118.803 69.313C118.803 68.8823 118.741 68.5083 118.616 68.191C118.503 67.8623 118.321 67.5903 118.072 67.375C117.823 67.1597 117.505 67.001 117.12 66.899C116.735 66.7857 116.281 66.729 115.76 66.729C115.341 66.729 115.046 66.814 114.876 66.984C114.717 67.154 114.627 67.392 114.604 67.698C114.593 67.9927 114.587 68.344 114.587 68.752V72.016C114.768 72.0273 114.938 72.0387 115.097 72.05C115.267 72.0613 115.448 72.0613 115.641 72.05ZM126.931 78.272C126.149 78.272 125.44 78.0907 124.806 77.728C124.182 77.354 123.689 76.8327 123.327 76.164C122.964 75.484 122.783 74.685 122.783 73.767C122.783 72.9737 122.958 72.2313 123.31 71.54C123.672 70.8487 124.177 70.2933 124.823 69.874C125.469 69.4433 126.217 69.228 127.067 69.228C127.543 69.228 127.985 69.3073 128.393 69.466C128.812 69.6133 129.18 69.8457 129.498 70.163C129.815 70.469 130.064 70.86 130.246 71.336C130.427 71.8007 130.518 72.3503 130.518 72.985L124.534 73.087C124.534 73.9483 124.624 74.7077 124.806 75.365C124.998 76.011 125.304 76.5153 125.724 76.878C126.143 77.2293 126.681 77.405 127.339 77.405C127.69 77.405 128.047 77.3427 128.41 77.218C128.784 77.0933 129.129 76.9233 129.447 76.708C129.764 76.4927 130.019 76.2547 130.212 75.994L130.62 76.334C130.314 76.81 129.945 77.1897 129.515 77.473C129.084 77.7563 128.642 77.9603 128.189 78.085C127.735 78.2097 127.316 78.272 126.931 78.272ZM124.585 72.373H128.92C128.92 71.965 128.857 71.574 128.733 71.2C128.619 70.8147 128.427 70.503 128.155 70.265C127.883 70.0157 127.526 69.891 127.084 69.891C126.426 69.891 125.877 70.0893 125.435 70.486C125.004 70.8713 124.721 71.5003 124.585 72.373ZM137.675 78C137.641 77.8073 137.619 77.6373 137.607 77.49C137.596 77.3427 137.579 77.1897 137.556 77.031C137.171 77.4163 136.752 77.7223 136.298 77.949C135.856 78.1643 135.386 78.272 134.887 78.272C134.026 78.272 133.386 78.0793 132.966 77.694C132.547 77.2973 132.337 76.8157 132.337 76.249C132.337 75.7277 132.496 75.28 132.813 74.906C133.142 74.5207 133.561 74.209 134.071 73.971C134.593 73.7217 135.154 73.5403 135.754 73.427C136.366 73.3023 136.956 73.2457 137.522 73.257V72.203C137.522 71.8063 137.488 71.4323 137.42 71.081C137.352 70.7297 137.205 70.4407 136.978 70.214C136.752 69.9873 136.389 69.8683 135.89 69.857C135.562 69.8457 135.222 69.908 134.87 70.044C134.53 70.18 134.281 70.4123 134.122 70.741C134.213 70.8317 134.27 70.9393 134.292 71.064C134.326 71.1773 134.343 71.285 134.343 71.387C134.343 71.523 134.287 71.6817 134.173 71.863C134.06 72.033 133.862 72.1123 133.578 72.101C133.34 72.101 133.159 72.0217 133.034 71.863C132.91 71.693 132.847 71.4947 132.847 71.268C132.847 70.8827 132.989 70.537 133.272 70.231C133.567 69.925 133.969 69.6813 134.479 69.5C134.989 69.3187 135.567 69.228 136.213 69.228C137.165 69.228 137.868 69.483 138.321 69.993C138.775 70.4917 138.996 71.285 138.984 72.373C138.984 72.7923 138.984 73.2173 138.984 73.648C138.984 74.0673 138.979 74.4923 138.967 74.923C138.967 75.3423 138.967 75.7673 138.967 76.198C138.967 76.3793 138.962 76.5607 138.95 76.742C138.939 76.9233 138.922 77.1273 138.899 77.354C139.103 77.3427 139.302 77.3313 139.494 77.32C139.698 77.3087 139.902 77.2973 140.106 77.286V78H137.675ZM137.522 73.835C137.137 73.8463 136.729 73.8973 136.298 73.988C135.879 74.0673 135.488 74.192 135.125 74.362C134.774 74.532 134.485 74.7587 134.258 75.042C134.043 75.314 133.941 75.6483 133.952 76.045C133.975 76.4643 134.111 76.7817 134.36 76.997C134.621 77.201 134.927 77.303 135.278 77.303C135.743 77.303 136.145 77.218 136.485 77.048C136.837 76.8667 137.182 76.6173 137.522 76.3C137.511 76.1753 137.505 76.0393 137.505 75.892C137.505 75.7447 137.505 75.5917 137.505 75.433C137.505 75.3763 137.505 75.195 137.505 74.889C137.517 74.583 137.522 74.2317 137.522 73.835ZM145.931 78.272C145.172 78.272 144.469 78.102 143.823 77.762C143.188 77.4107 142.678 76.912 142.293 76.266C141.919 75.6087 141.732 74.821 141.732 73.903C141.732 73.3137 141.84 72.7413 142.055 72.186C142.27 71.6307 142.571 71.132 142.956 70.69C143.353 70.2367 143.823 69.8797 144.367 69.619C144.911 69.3583 145.512 69.228 146.169 69.228C146.804 69.228 147.353 69.3243 147.818 69.517C148.294 69.7097 148.662 69.9647 148.923 70.282C149.184 70.5993 149.314 70.945 149.314 71.319C149.314 71.5683 149.246 71.7837 149.11 71.965C148.974 72.135 148.776 72.22 148.515 72.22C148.232 72.2313 148.028 72.1463 147.903 71.965C147.79 71.7723 147.733 71.6023 147.733 71.455C147.733 71.3417 147.75 71.2283 147.784 71.115C147.818 70.9903 147.886 70.877 147.988 70.775C147.897 70.503 147.739 70.3047 147.512 70.18C147.285 70.044 147.047 69.959 146.798 69.925C146.56 69.8797 146.362 69.857 146.203 69.857C145.432 69.857 144.781 70.1687 144.248 70.792C143.727 71.404 143.466 72.2993 143.466 73.478C143.466 74.2373 143.585 74.9117 143.823 75.501C144.072 76.0903 144.418 76.555 144.86 76.895C145.302 77.2237 145.812 77.388 146.39 77.388C146.923 77.388 147.433 77.2463 147.92 76.963C148.407 76.6797 148.787 76.334 149.059 75.926L149.501 76.266C149.206 76.742 148.849 77.1273 148.43 77.422C148.022 77.7167 147.597 77.932 147.155 78.068C146.724 78.204 146.316 78.272 145.931 78.272ZM154.454 78.272C154.193 78.272 153.927 78.2323 153.655 78.153C153.383 78.085 153.128 77.9433 152.89 77.728C152.663 77.5127 152.482 77.201 152.346 76.793C152.21 76.3737 152.142 75.824 152.142 75.144L152.176 70.214L150.867 70.231V69.5C151.161 69.4887 151.462 69.381 151.768 69.177C152.074 68.9617 152.346 68.6727 152.584 68.31C152.833 67.9473 153.003 67.5507 153.094 67.12H153.672V69.5H156.528V70.163L153.672 70.197L153.638 74.923C153.638 75.433 153.677 75.8693 153.757 76.232C153.847 76.5833 153.989 76.8497 154.182 77.031C154.374 77.2123 154.624 77.303 154.93 77.303C155.247 77.303 155.542 77.2123 155.814 77.031C156.097 76.8497 156.346 76.6003 156.562 76.283L157.021 76.657C156.771 77.031 156.522 77.3257 156.273 77.541C156.035 77.7563 155.802 77.915 155.576 78.017C155.349 78.1303 155.139 78.1983 154.947 78.221C154.754 78.255 154.59 78.272 154.454 78.272ZM172.906 69.891C172.792 68.8257 172.418 67.9983 171.784 67.409C171.16 66.8197 170.356 66.525 169.37 66.525C168.769 66.525 168.202 66.6553 167.67 66.916C167.148 67.1653 166.689 67.528 166.293 68.004C165.896 68.48 165.584 69.0523 165.358 69.721C165.131 70.3897 165.018 71.1433 165.018 71.982C165.018 73.0473 165.222 73.988 165.63 74.804C166.038 75.62 166.587 76.2547 167.279 76.708C167.97 77.1613 168.735 77.388 169.574 77.388C170.31 77.388 171.036 77.2237 171.75 76.895C172.464 76.555 173.047 76.0677 173.501 75.433L173.943 75.79C173.455 76.4587 172.928 76.9743 172.362 77.337C171.795 77.6997 171.228 77.9433 170.662 78.068C170.106 78.204 169.596 78.272 169.132 78.272C168.282 78.272 167.5 78.119 166.786 77.813C166.083 77.507 165.471 77.082 164.95 76.538C164.44 75.9827 164.043 75.3423 163.76 74.617C163.488 73.8803 163.352 73.087 163.352 72.237C163.352 71.4323 163.471 70.6503 163.709 69.891C163.958 69.1317 164.326 68.446 164.814 67.834C165.301 67.222 165.913 66.7347 166.65 66.372C167.398 66.0093 168.265 65.828 169.251 65.828C169.885 65.828 170.486 65.913 171.053 66.083C171.619 66.253 172.163 66.5137 172.685 66.865L172.6 65.947H173.518V69.891H172.906ZM179.93 78.272C179.137 78.272 178.417 78.0907 177.771 77.728C177.125 77.354 176.61 76.844 176.224 76.198C175.85 75.5407 175.663 74.7927 175.663 73.954C175.663 73.0587 175.85 72.254 176.224 71.54C176.598 70.826 177.108 70.265 177.754 69.857C178.4 69.4377 179.126 69.228 179.93 69.228C180.724 69.228 181.443 69.4207 182.089 69.806C182.735 70.18 183.251 70.69 183.636 71.336C184.022 71.982 184.214 72.7187 184.214 73.546C184.214 74.4187 184.022 75.2177 183.636 75.943C183.262 76.657 182.752 77.2237 182.106 77.643C181.46 78.0623 180.735 78.272 179.93 78.272ZM180.066 77.592C180.667 77.592 181.143 77.422 181.494 77.082C181.846 76.742 182.095 76.3 182.242 75.756C182.401 75.212 182.48 74.6397 182.48 74.039C182.48 73.529 182.429 73.0303 182.327 72.543C182.237 72.0443 182.089 71.5967 181.885 71.2C181.681 70.792 181.415 70.469 181.086 70.231C180.769 69.993 180.384 69.874 179.93 69.874C179.341 69.874 178.859 70.044 178.485 70.384C178.111 70.724 177.834 71.166 177.652 71.71C177.482 72.254 177.397 72.8377 177.397 73.461C177.397 74.1637 177.494 74.8323 177.686 75.467C177.879 76.0903 178.174 76.6003 178.57 76.997C178.967 77.3937 179.466 77.592 180.066 77.592ZM186.169 78V77.49C186.52 77.49 186.764 77.405 186.9 77.235C187.036 77.0537 187.115 76.81 187.138 76.504C187.16 76.1867 187.172 75.824 187.172 75.416V71.54C187.172 71.3587 187.172 71.1773 187.172 70.996C187.183 70.8147 187.206 70.6277 187.24 70.435C187.036 70.4463 186.832 70.4577 186.628 70.469C186.435 70.4803 186.237 70.4917 186.033 70.503V69.789C186.531 69.789 186.905 69.7663 187.155 69.721C187.415 69.6757 187.608 69.619 187.733 69.551C187.857 69.483 187.959 69.4093 188.039 69.33H188.532C188.554 69.4433 188.566 69.5737 188.566 69.721C188.577 69.8683 188.588 70.0383 188.6 70.231C188.94 69.9363 189.331 69.6983 189.773 69.517C190.215 69.3243 190.657 69.228 191.099 69.228C191.665 69.228 192.141 69.33 192.527 69.534C192.912 69.738 193.212 70.0157 193.428 70.367C193.813 70.0497 194.255 69.7833 194.754 69.568C195.264 69.3413 195.762 69.228 196.25 69.228C197.236 69.228 197.961 69.5283 198.426 70.129C198.89 70.7183 199.111 71.6873 199.089 73.036L199.072 76.198C199.072 76.4247 199.066 76.6287 199.055 76.81C199.055 76.98 199.038 77.1613 199.004 77.354C199.185 77.3427 199.361 77.337 199.531 77.337C199.712 77.3257 199.893 77.3143 200.075 77.303V78H196.607V77.49C196.958 77.49 197.202 77.405 197.338 77.235C197.474 77.0537 197.553 76.81 197.576 76.504C197.598 76.1867 197.61 75.824 197.61 75.416V73.036C197.61 72.0613 197.451 71.3303 197.134 70.843C196.828 70.3557 196.34 70.1177 195.672 70.129C195.32 70.129 194.969 70.2083 194.618 70.367C194.266 70.5257 193.96 70.724 193.7 70.962C193.756 71.1433 193.796 71.3417 193.819 71.557C193.853 71.761 193.87 71.9763 193.87 72.203C193.858 72.8603 193.853 73.5233 193.853 74.192C193.853 74.8607 193.847 75.5293 193.836 76.198C193.836 76.4247 193.83 76.6287 193.819 76.81C193.819 76.98 193.802 77.1613 193.768 77.354C193.949 77.3427 194.125 77.337 194.295 77.337C194.476 77.3257 194.657 77.3143 194.839 77.303V78H191.371V77.49C191.722 77.49 191.96 77.405 192.085 77.235C192.221 77.0537 192.3 76.81 192.323 76.504C192.357 76.1867 192.374 75.824 192.374 75.416L192.391 73.036C192.402 72.0613 192.26 71.3247 191.966 70.826C191.671 70.3273 191.189 70.0837 190.521 70.095C190.169 70.095 189.824 70.1743 189.484 70.333C189.144 70.4803 188.855 70.673 188.617 70.911C188.617 71.047 188.617 71.1943 188.617 71.353C188.628 71.5003 188.634 71.659 188.634 71.829V76.198C188.634 76.4247 188.628 76.6287 188.617 76.81C188.617 76.98 188.6 77.1613 188.566 77.354C188.747 77.3427 188.923 77.337 189.093 77.337C189.274 77.3257 189.455 77.3143 189.637 77.303V78H186.169ZM201.716 82.335V81.825C202.068 81.825 202.311 81.7343 202.447 81.553C202.583 81.383 202.663 81.1393 202.685 80.822C202.708 80.516 202.719 80.159 202.719 79.751L202.753 71.54C202.753 71.3587 202.753 71.1773 202.753 70.996C202.765 70.8147 202.787 70.6277 202.821 70.435C202.617 70.4463 202.413 70.4577 202.209 70.469C202.017 70.4803 201.818 70.4917 201.614 70.503V69.789C202.113 69.789 202.487 69.7663 202.736 69.721C202.997 69.6757 203.184 69.619 203.297 69.551C203.422 69.483 203.524 69.4093 203.603 69.33H204.113C204.125 69.4433 204.136 69.5793 204.147 69.738C204.159 69.8853 204.17 70.0553 204.181 70.248C204.521 69.942 204.924 69.6983 205.388 69.517C205.864 69.3243 206.34 69.228 206.816 69.228C207.474 69.228 208.086 69.398 208.652 69.738C209.219 70.078 209.678 70.5653 210.029 71.2C210.381 71.8233 210.556 72.5713 210.556 73.444C210.556 74.4073 210.352 75.2517 209.944 75.977C209.548 76.7023 209.021 77.269 208.363 77.677C207.706 78.0737 206.992 78.272 206.221 78.272C205.825 78.272 205.456 78.221 205.116 78.119C204.788 78.0283 204.476 77.8923 204.181 77.711V80.533C204.181 80.7597 204.176 80.958 204.164 81.128C204.164 81.3093 204.147 81.4963 204.113 81.689C204.295 81.6777 204.47 81.6663 204.64 81.655C204.822 81.655 205.003 81.6493 205.184 81.638V82.335H201.716ZM206.187 77.592C206.731 77.592 207.196 77.4277 207.581 77.099C207.978 76.759 208.278 76.3 208.482 75.722C208.698 75.1327 208.805 74.464 208.805 73.716C208.805 73.104 208.715 72.5203 208.533 71.965C208.363 71.3983 208.086 70.9393 207.7 70.588C207.326 70.2367 206.828 70.061 206.204 70.061C205.819 70.061 205.445 70.1573 205.082 70.35C204.731 70.5313 204.436 70.7523 204.198 71.013C204.198 71.0583 204.198 71.1263 204.198 71.217C204.21 71.2963 204.215 71.4437 204.215 71.659C204.215 71.863 204.215 72.1747 204.215 72.594C204.215 73.002 204.21 73.5573 204.198 74.26C204.198 74.9627 204.198 75.8523 204.198 76.929C204.482 77.1443 204.788 77.3087 205.116 77.422C205.456 77.5353 205.813 77.592 206.187 77.592ZM216.739 78.272C215.945 78.272 215.226 78.0907 214.58 77.728C213.934 77.354 213.418 76.844 213.033 76.198C212.659 75.5407 212.472 74.7927 212.472 73.954C212.472 73.0587 212.659 72.254 213.033 71.54C213.407 70.826 213.917 70.265 214.563 69.857C215.209 69.4377 215.934 69.228 216.739 69.228C217.532 69.228 218.252 69.4207 218.898 69.806C219.544 70.18 220.059 70.69 220.445 71.336C220.83 71.982 221.023 72.7187 221.023 73.546C221.023 74.4187 220.83 75.2177 220.445 75.943C220.071 76.657 219.561 77.2237 218.915 77.643C218.269 78.0623 217.543 78.272 216.739 78.272ZM216.875 77.592C217.475 77.592 217.951 77.422 218.303 77.082C218.654 76.742 218.903 76.3 219.051 75.756C219.209 75.212 219.289 74.6397 219.289 74.039C219.289 73.529 219.238 73.0303 219.136 72.543C219.045 72.0443 218.898 71.5967 218.694 71.2C218.49 70.792 218.223 70.469 217.895 70.231C217.577 69.993 217.192 69.874 216.739 69.874C216.149 69.874 215.668 70.044 215.294 70.384C214.92 70.724 214.642 71.166 214.461 71.71C214.291 72.254 214.206 72.8377 214.206 73.461C214.206 74.1637 214.302 74.8323 214.495 75.467C214.687 76.0903 214.982 76.6003 215.379 76.997C215.775 77.3937 216.274 77.592 216.875 77.592ZM222.977 78V77.49C223.328 77.49 223.572 77.405 223.708 77.235C223.844 77.0537 223.923 76.81 223.946 76.504C223.969 76.1867 223.98 75.824 223.98 75.416L223.997 71.54C223.997 71.3587 223.997 71.1773 223.997 70.996C224.008 70.8147 224.031 70.6277 224.065 70.435C223.861 70.4463 223.657 70.4577 223.453 70.469C223.26 70.4803 223.062 70.4917 222.858 70.503V69.789C223.357 69.789 223.731 69.7663 223.98 69.721C224.241 69.6757 224.433 69.619 224.558 69.551C224.683 69.483 224.785 69.4093 224.864 69.33H225.357C225.368 69.4093 225.374 69.5 225.374 69.602C225.385 69.704 225.397 69.8173 225.408 69.942C225.419 70.0667 225.425 70.2083 225.425 70.367C225.674 70.1517 225.946 69.959 226.241 69.789C226.547 69.619 226.864 69.483 227.193 69.381C227.533 69.279 227.867 69.228 228.196 69.228C229.182 69.228 229.902 69.5397 230.355 70.163C230.808 70.775 231.035 71.7327 231.035 73.036V76.198C231.035 76.4247 231.029 76.6287 231.018 76.81C231.018 76.98 231.001 77.1613 230.967 77.354C231.148 77.3427 231.324 77.337 231.494 77.337C231.675 77.3257 231.857 77.3143 232.038 77.303V78H228.57V77.49C228.921 77.49 229.165 77.405 229.301 77.235C229.437 77.0537 229.516 76.81 229.539 76.504C229.562 76.1867 229.573 75.824 229.573 75.416V73.036C229.562 72.0613 229.397 71.3247 229.08 70.826C228.774 70.3273 228.287 70.0837 227.618 70.095C227.21 70.1063 226.808 70.214 226.411 70.418C226.026 70.622 225.703 70.8827 225.442 71.2C225.453 71.2907 225.459 71.3927 225.459 71.506C225.459 71.6193 225.459 71.7383 225.459 71.863L225.442 76.198C225.442 76.4247 225.436 76.6287 225.425 76.81C225.425 76.98 225.408 77.1613 225.374 77.354C225.555 77.3427 225.731 77.337 225.901 77.337C226.082 77.3257 226.264 77.3143 226.445 77.303V78H222.977ZM237.927 78.272C237.145 78.272 236.437 78.0907 235.802 77.728C235.179 77.354 234.686 76.8327 234.323 76.164C233.961 75.484 233.779 74.685 233.779 73.767C233.779 72.9737 233.955 72.2313 234.306 71.54C234.669 70.8487 235.173 70.2933 235.819 69.874C236.465 69.4433 237.213 69.228 238.063 69.228C238.539 69.228 238.981 69.3073 239.389 69.466C239.809 69.6133 240.177 69.8457 240.494 70.163C240.812 70.469 241.061 70.86 241.242 71.336C241.424 71.8007 241.514 72.3503 241.514 72.985L235.53 73.087C235.53 73.9483 235.621 74.7077 235.802 75.365C235.995 76.011 236.301 76.5153 236.72 76.878C237.14 77.2293 237.678 77.405 238.335 77.405C238.687 77.405 239.044 77.3427 239.406 77.218C239.78 77.0933 240.126 76.9233 240.443 76.708C240.761 76.4927 241.016 76.2547 241.208 75.994L241.616 76.334C241.31 76.81 240.942 77.1897 240.511 77.473C240.081 77.7563 239.639 77.9603 239.185 78.085C238.732 78.2097 238.313 78.272 237.927 78.272ZM235.581 72.373H239.916C239.916 71.965 239.854 71.574 239.729 71.2C239.616 70.8147 239.423 70.503 239.151 70.265C238.879 70.0157 238.522 69.891 238.08 69.891C237.423 69.891 236.873 70.0893 236.431 70.486C236.001 70.8713 235.717 71.5003 235.581 72.373ZM243.537 78V77.49C243.889 77.49 244.132 77.405 244.268 77.235C244.404 77.0537 244.484 76.81 244.506 76.504C244.529 76.1867 244.54 75.824 244.54 75.416L244.557 71.54C244.557 71.3587 244.557 71.1773 244.557 70.996C244.569 70.8147 244.591 70.6277 244.625 70.435C244.421 70.4463 244.217 70.4577 244.013 70.469C243.821 70.4803 243.622 70.4917 243.418 70.503V69.789C243.917 69.789 244.291 69.7663 244.54 69.721C244.801 69.6757 244.994 69.619 245.118 69.551C245.243 69.483 245.345 69.4093 245.424 69.33H245.917C245.929 69.4093 245.934 69.5 245.934 69.602C245.946 69.704 245.957 69.8173 245.968 69.942C245.98 70.0667 245.985 70.2083 245.985 70.367C246.235 70.1517 246.507 69.959 246.801 69.789C247.107 69.619 247.425 69.483 247.753 69.381C248.093 69.279 248.428 69.228 248.756 69.228C249.742 69.228 250.462 69.5397 250.915 70.163C251.369 70.775 251.595 71.7327 251.595 73.036V76.198C251.595 76.4247 251.59 76.6287 251.578 76.81C251.578 76.98 251.561 77.1613 251.527 77.354C251.709 77.3427 251.884 77.337 252.054 77.337C252.236 77.3257 252.417 77.3143 252.598 77.303V78H249.13V77.49C249.482 77.49 249.725 77.405 249.861 77.235C249.997 77.0537 250.077 76.81 250.099 76.504C250.122 76.1867 250.133 75.824 250.133 75.416V73.036C250.122 72.0613 249.958 71.3247 249.64 70.826C249.334 70.3273 248.847 70.0837 248.178 70.095C247.77 70.1063 247.368 70.214 246.971 70.418C246.586 70.622 246.263 70.8827 246.002 71.2C246.014 71.2907 246.019 71.3927 246.019 71.506C246.019 71.6193 246.019 71.7383 246.019 71.863L246.002 76.198C246.002 76.4247 245.997 76.6287 245.985 76.81C245.985 76.98 245.968 77.1613 245.934 77.354C246.116 77.3427 246.291 77.337 246.461 77.337C246.643 77.3257 246.824 77.3143 247.005 77.303V78H243.537ZM257.42 78.272C257.159 78.272 256.893 78.2323 256.621 78.153C256.349 78.085 256.094 77.9433 255.856 77.728C255.629 77.5127 255.448 77.201 255.312 76.793C255.176 76.3737 255.108 75.824 255.108 75.144L255.142 70.214L253.833 70.231V69.5C254.128 69.4887 254.428 69.381 254.734 69.177C255.04 68.9617 255.312 68.6727 255.55 68.31C255.799 67.9473 255.969 67.5507 256.06 67.12H256.638V69.5H259.494V70.163L256.638 70.197L256.604 74.923C256.604 75.433 256.644 75.8693 256.723 76.232C256.814 76.5833 256.955 76.8497 257.148 77.031C257.341 77.2123 257.59 77.303 257.896 77.303C258.213 77.303 258.508 77.2123 258.78 77.031C259.063 76.8497 259.313 76.6003 259.528 76.283L259.987 76.657C259.738 77.031 259.488 77.3257 259.239 77.541C259.001 77.7563 258.769 77.915 258.542 78.017C258.315 78.1303 258.106 78.1983 257.913 78.221C257.72 78.255 257.556 78.272 257.42 78.272Z"
          fill="#009ED0"/>
</svg>
